<svg width="842" height="595" xmlns="http://www.w3.org/2000/svg" xml:space="preserve" version="1.1">
 <title/>
 <metadata>image/svg+xmlOpenclipart58294main_The.Brain.in.Space-page-163-soda2010-04-06T07:38:26This is clipart converted and broken apart that has been released into the public domain because the document says so, and its from NASA, a USA government agency. The publication is called "The Brain in Space:"
\n
\nhttp://www.nasa.gov/audience/foreducators/topnav/materials/listbytype/The.Brain.in.Space.htmlhttps://openclipart.org/detail/38557/-by-rejon-38557rejonastronomybraincanconvertedgovernmentnasasciencesodasoft-drinkspaceusa</metadata>

 <g class="layer">
  <title>Layer 1</title>
  <g transform="rotate(168.869, 504.546, 270.733)" id="svg_598">
   <path stroke-width="2.5967" stroke-miterlimit="3.864" stroke="#231f20" id="svg_480" fill="#bdbcbc" d="m404.66007,75.42335c0,8.40507 5.99211,13.69087 10.77216,16.74875c21.32974,13.63721 66.69732,16.29872 89.01618,16.29872c11.36443,0 99.98815,-1.15123 99.98815,-33.04748c0,-31.89654 -88.62532,-33.04748 -99.98815,-33.04748c-11.37799,0 -99.78874,1.13885 -99.78874,33.04748l0.0004,0z"/>
   <path stroke-width="2.5967" stroke-miterlimit="3.864" stroke="#231f20" id="svg_481" fill="#bdbcbc" d="m404.66007,75.76172c0,8.40507 5.99211,13.687 10.77216,16.74875c21.32974,13.63721 66.69732,16.29872 89.01618,16.29872c11.36443,0 99.98815,-1.15533 99.98815,-33.04748c0,-31.89654 -88.62532,-33.05183 -99.98815,-33.05183c-11.37799,0 -99.78874,1.14296 -99.78874,33.05183l0.0004,0z"/>
   <path stroke-width="2.5967" stroke-miterlimit="3.864" stroke="#231f20" id="svg_482" fill="#bdbcbc" d="m404.66007,76.14843c0,8.40942 5.99211,13.69087 10.77216,16.74875c21.32974,13.64157 66.69732,16.30307 89.01618,16.30307c11.36443,0 99.98815,-1.15533 99.98815,-33.05183c0,-31.89219 -88.62532,-33.04748 -99.98815,-33.04748c-11.37799,0 -99.78874,1.1389 -99.78874,33.04748l0.0004,0z"/>
   <path stroke-width="2.5967" stroke-miterlimit="3.864" stroke="#231f20" id="svg_483" fill="#bdbcbc" d="m404.66007,76.4868c0,8.40507 5.99211,13.69087 10.77216,16.74875c21.32974,13.64157 66.69732,16.29872 89.01618,16.29872c11.36443,0 99.98815,-1.15123 99.98815,-33.04748s-88.62532,-33.04748 -99.98815,-33.04748c-11.37799,0 -99.78874,1.1389 -99.78874,33.04748l0.0004,0z"/>
   <path stroke-width="2.5967" stroke-miterlimit="3.864" stroke="#231f20" id="svg_484" fill="#bdbcbc" d="m404.66007,76.8735c0,8.40507 5.99211,13.69087 10.77216,16.74875c21.32974,13.63721 66.69732,16.29872 89.01618,16.29872c11.36443,0 99.98815,-1.15123 99.98815,-33.04748s-88.62532,-33.04748 -99.98815,-33.04748c-11.37799,0 -99.78874,1.13885 -99.78874,33.04748l0.0004,0z"/>
   <path stroke-width="2.5967" stroke-miterlimit="3.864" stroke="#231f20" id="svg_485" fill="#bdbcbc" d="m404.66007,77.21187c0,8.40507 5.99211,13.687 10.77216,16.7444c21.32974,13.64157 66.69732,16.30307 89.01618,16.30307c11.36443,0 99.98815,-1.15538 99.98815,-33.04748c0,-31.89654 -88.62532,-33.05183 -99.98815,-33.05183c-11.37799,0 -99.78874,1.14296 -99.78874,33.05183l0.0004,0z"/>
   <path stroke-width="2.5967" stroke-miterlimit="3.864" stroke="#231f20" id="svg_486" fill="#bdbcbc" d="m404.66007,77.55024c0,8.40507 5.99211,13.69087 10.77216,16.74875c21.32974,13.64157 66.69732,16.29872 89.01618,16.29872c11.36443,0 99.98815,-1.15123 99.98815,-33.04748c0,-31.89219 -88.62532,-33.04748 -99.98815,-33.04748c-11.37799,0 -99.78874,1.13885 -99.78874,33.04748l0.0004,0z"/>
   <path stroke-width="2.5967" stroke-miterlimit="3.864" stroke="#231f20" id="svg_487" fill="#bdbcbc" d="m404.66007,77.93695c0,8.40507 5.99211,13.69087 10.77216,16.74875c21.32974,13.64157 66.69732,16.29872 89.01618,16.29872c11.36443,0 99.98815,-1.15123 99.98815,-33.04748s-88.62532,-33.04748 -99.98815,-33.04748c-11.37799,0 -99.78874,1.13885 -99.78874,33.04748l0.0004,0z"/>
   <path stroke-width="2.5967" stroke-miterlimit="3.864" stroke="#231f20" id="svg_488" fill="#bdbcbc" d="m404.66007,78.27532c0,8.40507 5.99211,13.69087 10.77216,16.74875c21.32974,13.63721 66.69732,16.29872 89.01618,16.29872c11.36443,0 99.98815,-1.15533 99.98815,-33.04748c0,-31.89606 -88.62532,-33.04748 -99.98815,-33.04748c-11.37799,0 -99.78874,1.13885 -99.78874,33.04748l0.0004,0z"/>
   <path stroke-width="2.5967" stroke-miterlimit="3.864" stroke="#231f20" id="svg_489" fill="#bdbcbc" d="m404.66007,78.66202c0,8.40507 5.99211,13.687 10.77216,16.7444c21.32974,13.64157 66.69732,16.30307 89.01618,16.30307c11.36443,0 99.98815,-1.15538 99.98815,-33.04748c0,-31.89606 -88.62532,-33.05183 -99.98815,-33.05183c-11.37799,0 -99.78874,1.14301 -99.78874,33.05183l0.0004,0z"/>
   <path stroke-width="2.5967" stroke-miterlimit="3.864" stroke="#231f20" id="svg_490" fill="#bdbcbc" d="m404.66007,79.00039c0,8.40507 5.99211,13.69087 10.77216,16.74875c21.32974,13.64157 66.69732,16.29872 89.01618,16.29872c11.36443,0 99.98815,-1.15127 99.98815,-33.04748c0,-31.89219 -88.62532,-33.04748 -99.98815,-33.04748c-11.37799,0 -99.78874,1.13885 -99.78874,33.04748l0.0004,0z"/>
   <path stroke-width="2.5967" stroke-miterlimit="3.864" stroke="#231f20" id="svg_491" fill="#bdbcbc" d="m404.66007,79.3871c0,8.40507 5.99211,13.69087 10.77216,16.74875c21.32974,13.64157 66.69732,16.29872 89.01618,16.29872c11.36443,0 99.98815,-1.15127 99.98815,-33.04748c0,-31.89654 -88.62532,-33.04748 -99.98815,-33.04748c-11.37799,0 -99.78874,1.13885 -99.78874,33.04748l0.0004,0z"/>
   <path stroke-width="2.5967" stroke-miterlimit="3.864" stroke="#231f20" id="svg_492" fill="#bdbcbc" d="m404.66007,79.72547c0,8.40507 5.99211,13.69087 10.77216,16.74875c21.32974,13.63721 66.69732,16.29872 89.01618,16.29872c11.36443,0 99.98815,-1.15533 99.98815,-33.04748c0,-31.89654 -88.62532,-33.05183 -99.98815,-33.05183c-11.37799,0 -99.78874,1.14296 -99.78874,33.05183l0.0004,0z"/>
   <path stroke-width="2.5967" stroke-miterlimit="3.864" stroke="#231f20" id="svg_493" fill="#bdbcbc" d="m404.66007,80.11217c0,8.40942 5.99211,13.69087 10.77216,16.74875c21.32974,13.64157 66.69732,16.30307 89.01618,16.30307c11.36443,0 99.98815,-1.15533 99.98815,-33.05183c0,-31.89219 -88.62532,-33.04748 -99.98815,-33.04748c-11.37799,0 -99.78874,1.14296 -99.78874,33.04748l0.0004,0z"/>
   <path stroke-width="2.5967" stroke-miterlimit="3.864" stroke="#231f20" id="svg_494" fill="#bdbcbc" d="m404.66007,80.45054c0,8.40507 5.99211,13.69087 10.77216,16.74875c21.32974,13.64157 66.69732,16.29872 89.01618,16.29872c11.36443,0 99.98815,-1.15123 99.98815,-33.04748c0,-31.89219 -88.62532,-33.04748 -99.98815,-33.04748c-11.37799,0 -99.78874,1.1389 -99.78874,33.04748l0.0004,0z"/>
   <path stroke-width="2.5967" stroke-miterlimit="3.864" stroke="#231f20" id="svg_495" fill="#bdbcbc" d="m404.66007,80.83725c0,8.40507 5.99211,13.69087 10.77216,16.74875c21.32974,13.64157 66.69732,16.29872 89.01618,16.29872c11.36443,0 99.98815,-1.15123 99.98815,-33.04748s-88.62532,-33.04748 -99.98815,-33.04748c-11.37799,0 -99.78874,1.1389 -99.78874,33.04748l0.0004,0z"/>
   <path stroke-width="2.5967" stroke-miterlimit="3.864" stroke="#231f20" id="svg_496" fill="#bdbcbc" d="m404.66007,81.17562c0,8.40507 5.99211,13.69087 10.77216,16.74875c21.32974,13.63721 66.69732,16.29872 89.01618,16.29872c11.36443,0 99.98815,-1.15538 99.98815,-33.04748c0,-31.89606 -88.62532,-33.05183 -99.98815,-33.05183c-11.37799,0 -99.78874,1.14296 -99.78874,33.05183l0.0004,0z"/>
   <path stroke-width="2.5967" stroke-miterlimit="3.864" stroke="#231f20" id="svg_497" fill="#bdbcbc" d="m404.66007,81.56232c0,8.40507 5.99211,13.687 10.77216,16.7444c21.32974,13.64157 66.69732,16.30307 89.01618,16.30307c11.36443,0 99.98815,-1.15538 99.98815,-33.04748c0,-31.89606 -88.62532,-33.05183 -99.98815,-33.05183c-11.37799,0 -99.78874,1.14296 -99.78874,33.05183l0.0004,0z"/>
   <path stroke-width="2.5967" stroke-miterlimit="3.864" stroke="#231f20" id="svg_498" fill="#bdbcbc" d="m404.66007,81.90069c0,8.40507 5.99211,13.69087 10.77216,16.74875c21.32974,13.64157 66.69732,16.29872 89.01618,16.29872c11.36443,0 99.98815,-1.15123 99.98815,-33.04748c0,-31.89219 -88.62532,-33.04748 -99.98815,-33.04748c-11.37799,0 -99.78874,1.13885 -99.78874,33.04748l0.0004,0z"/>
   <path stroke-width="2.5967" stroke-miterlimit="3.864" stroke="#231f20" id="svg_499" fill="#bdbcbc" d="m404.66007,82.2874c0,8.40507 5.99211,13.69087 10.77216,16.74875c21.32974,13.64157 66.69732,16.29872 89.01618,16.29872c11.36443,0 99.98815,-1.15123 99.98815,-33.04748c0,-31.89654 -88.62532,-33.04748 -99.98815,-33.04748c-11.37799,0 -99.78874,1.13885 -99.78874,33.04748l0.0004,0z"/>
   <path stroke-width="2.5967" stroke-miterlimit="3.864" stroke="#231f20" id="svg_500" fill="#bdbcbc" d="m404.66007,82.62577c0,8.40507 5.99211,13.687 10.77216,16.74875c21.32974,13.63721 66.69732,16.29872 89.01618,16.29872c11.36443,0 99.98815,-1.15533 99.98815,-33.04748c0,-31.89606 -88.62532,-33.05183 -99.98815,-33.05183c-11.37799,0 -99.78874,1.14301 -99.78874,33.05183l0.0004,0z"/>
   <path stroke-width="2.5967" stroke-miterlimit="3.864" stroke="#231f20" id="svg_501" fill="#bdbcbc" d="m404.66007,83.01247c0,8.40942 5.99211,13.69087 10.77216,16.74875c21.32974,13.64157 66.69732,16.30307 89.01618,16.30307c11.36443,0 99.98815,-1.15533 99.98815,-33.05183c0,-31.89219 -88.62532,-33.04748 -99.98815,-33.04748c-11.37799,0 -99.78874,1.14301 -99.78874,33.04748l0.0004,0z"/>
   <path stroke-width="2.5967" stroke-miterlimit="3.864" stroke="#231f20" id="svg_502" fill="#bdbcbc" d="m404.66007,83.35084c0,8.40507 5.99211,13.69087 10.77216,16.74875c21.32974,13.64157 66.69732,16.29872 89.01618,16.29872c11.36443,0 99.98815,-1.15127 99.98815,-33.04748c0,-31.89654 -88.62532,-33.04748 -99.98815,-33.04748c-11.37799,0 -99.78874,1.13885 -99.78874,33.04748l0.0004,0z"/>
   <path stroke-width="2.5967" stroke-miterlimit="3.864" stroke="#231f20" id="svg_503" fill="#bdbcbc" d="m404.66007,83.73755c0,8.40507 5.99211,13.69087 10.77216,16.74875c21.32974,13.63721 66.69732,16.29872 89.01618,16.29872c11.36443,0 99.98815,-1.15127 99.98815,-33.04748c0,-31.89654 -88.62532,-33.04748 -99.98815,-33.04748c-11.37799,0 -99.78874,1.13885 -99.78874,33.04748l0.0004,0z"/>
   <path stroke-width="2.5967" stroke-miterlimit="3.864" stroke="#231f20" id="svg_504" fill="#bdbcbc" d="m404.66007,84.07592c0,8.40507 5.99211,13.687 10.77216,16.7444c21.32974,13.64157 66.69732,16.30307 89.01618,16.30307c11.36443,0 99.98815,-1.15538 99.98815,-33.04748c0,-31.89654 -88.62532,-33.05183 -99.98815,-33.05183c-11.37799,0 -99.78874,1.14296 -99.78874,33.05183l0.0004,0z"/>
   <path id="svg_505" fill="#a7a5a6" d="m415.42864,91.81005c21.32974,13.64157 66.69732,16.29872 89.01618,16.29872c11.36443,0 99.98815,-1.15127 99.98815,-33.04748c0,-31.89654 -88.62532,-33.04748 -99.98815,-33.04748c-11.37799,0 -99.78874,1.13885 -99.78874,33.04748c0,8.40507 5.99211,13.69087 10.77216,16.74875"/>
   <path id="svg_506" fill="#a7a5a6" d="m404.66007,75.42335c0,8.40507 5.99211,13.69087 10.77216,16.74875c21.32974,13.63721 66.69732,16.29872 89.01618,16.29872c11.36443,0 99.98815,-1.15123 99.98815,-33.04748c0,-31.89654 -88.62532,-33.04748 -99.98815,-33.04748c-11.37799,0 -99.78874,1.13885 -99.78874,33.04748"/>
   <path id="svg_507" fill="#a7a5a6" d="m404.66007,75.76172c0,8.40507 5.99211,13.687 10.77216,16.74875c21.32974,13.63721 66.69732,16.29872 89.01618,16.29872c11.36443,0 99.98815,-1.15533 99.98815,-33.04748c0,-31.89654 -88.62532,-33.05183 -99.98815,-33.05183c-11.37799,0 -99.78874,1.14296 -99.78874,33.05183"/>
   <path id="svg_508" fill="#a7a5a6" d="m404.66007,76.14843c0,8.40942 5.99211,13.69087 10.77216,16.74875c21.32974,13.64157 66.69732,16.30307 89.01618,16.30307c11.36443,0 99.98815,-1.15533 99.98815,-33.05183c0,-31.89219 -88.62532,-33.04748 -99.98815,-33.04748c-11.37799,0 -99.78874,1.1389 -99.78874,33.04748"/>
   <path id="svg_509" fill="#a7a5a6" d="m404.66007,76.4868c0,8.40507 5.99211,13.69087 10.77216,16.74875c21.32974,13.64157 66.69732,16.29872 89.01618,16.29872c11.36443,0 99.98815,-1.15123 99.98815,-33.04748s-88.62532,-33.04748 -99.98815,-33.04748c-11.37799,0 -99.78874,1.1389 -99.78874,33.04748"/>
   <path id="svg_510" fill="#a7a5a6" d="m404.66007,76.8735c0,8.40507 5.99211,13.69087 10.77216,16.74875c21.32974,13.63721 66.69732,16.29872 89.01618,16.29872c11.36443,0 99.98815,-1.15123 99.98815,-33.04748s-88.62532,-33.04748 -99.98815,-33.04748c-11.37799,0 -99.78874,1.13885 -99.78874,33.04748"/>
   <path id="svg_511" fill="#a7a5a6" d="m404.66007,77.21187c0,8.40507 5.99211,13.687 10.77216,16.7444c21.32974,13.64157 66.69732,16.30307 89.01618,16.30307c11.36443,0 99.98815,-1.15538 99.98815,-33.04748c0,-31.89654 -88.62532,-33.05183 -99.98815,-33.05183c-11.37799,0 -99.78874,1.14296 -99.78874,33.05183"/>
   <path id="svg_512" fill="#a7a5a6" d="m404.66007,77.55024c0,8.40507 5.99211,13.69087 10.77216,16.74875c21.32974,13.64157 66.69732,16.29872 89.01618,16.29872c11.36443,0 99.98815,-1.15123 99.98815,-33.04748c0,-31.89219 -88.62532,-33.04748 -99.98815,-33.04748c-11.37799,0 -99.78874,1.13885 -99.78874,33.04748"/>
   <path id="svg_513" fill="#a7a5a6" d="m404.66007,77.93695c0,8.40507 5.99211,13.69087 10.77216,16.74875c21.32974,13.64157 66.69732,16.29872 89.01618,16.29872c11.36443,0 99.98815,-1.15123 99.98815,-33.04748s-88.62532,-33.04748 -99.98815,-33.04748c-11.37799,0 -99.78874,1.13885 -99.78874,33.04748"/>
   <path id="svg_514" fill="#a7a5a6" d="m404.66007,78.27532c0,8.40507 5.99211,13.69087 10.77216,16.74875c21.32974,13.63721 66.69732,16.29872 89.01618,16.29872c11.36443,0 99.98815,-1.15533 99.98815,-33.04748c0,-31.89606 -88.62532,-33.04748 -99.98815,-33.04748c-11.37799,0 -99.78874,1.13885 -99.78874,33.04748"/>
   <path id="svg_515" fill="#a7a5a6" d="m404.66007,78.66202c0,8.40507 5.99211,13.687 10.77216,16.7444c21.32974,13.64157 66.69732,16.30307 89.01618,16.30307c11.36443,0 99.98815,-1.15538 99.98815,-33.04748c0,-31.89606 -88.62532,-33.05183 -99.98815,-33.05183c-11.37799,0 -99.78874,1.14301 -99.78874,33.05183"/>
   <path id="svg_516" fill="#a7a5a6" d="m404.66007,79.00039c0,8.40507 5.99211,13.69087 10.77216,16.74875c21.32974,13.64157 66.69732,16.29872 89.01618,16.29872c11.36443,0 99.98815,-1.15127 99.98815,-33.04748c0,-31.89219 -88.62532,-33.04748 -99.98815,-33.04748c-11.37799,0 -99.78874,1.13885 -99.78874,33.04748"/>
   <path id="svg_517" fill="#a7a5a6" d="m404.66007,79.3871c0,8.40507 5.99211,13.69087 10.77216,16.74875c21.32974,13.64157 66.69732,16.29872 89.01618,16.29872c11.36443,0 99.98815,-1.15127 99.98815,-33.04748c0,-31.89654 -88.62532,-33.04748 -99.98815,-33.04748c-11.37799,0 -99.78874,1.13885 -99.78874,33.04748"/>
   <path id="svg_518" fill="#a7a5a6" d="m404.66007,79.72547c0,8.40507 5.99211,13.69087 10.77216,16.74875c21.32974,13.63721 66.69732,16.29872 89.01618,16.29872c11.36443,0 99.98815,-1.15533 99.98815,-33.04748c0,-31.89654 -88.62532,-33.05183 -99.98815,-33.05183c-11.37799,0 -99.78874,1.14296 -99.78874,33.05183"/>
   <path id="svg_519" fill="#a7a5a6" d="m404.66007,80.11217c0,8.40942 5.99211,13.69087 10.77216,16.74875c21.32974,13.64157 66.69732,16.30307 89.01618,16.30307c11.36443,0 99.98815,-1.15533 99.98815,-33.05183c0,-31.89219 -88.62532,-33.04748 -99.98815,-33.04748c-11.37799,0 -99.78874,1.14296 -99.78874,33.04748"/>
   <path id="svg_520" fill="#a7a5a6" d="m404.66007,80.45054c0,8.40507 5.99211,13.69087 10.77216,16.74875c21.32974,13.64157 66.69732,16.29872 89.01618,16.29872c11.36443,0 99.98815,-1.15123 99.98815,-33.04748c0,-31.89219 -88.62532,-33.04748 -99.98815,-33.04748c-11.37799,0 -99.78874,1.1389 -99.78874,33.04748"/>
   <path id="svg_521" fill="#a7a5a6" d="m404.66007,80.83725c0,8.40507 5.99211,13.69087 10.77216,16.74875c21.32974,13.64157 66.69732,16.29872 89.01618,16.29872c11.36443,0 99.98815,-1.15123 99.98815,-33.04748s-88.62532,-33.04748 -99.98815,-33.04748c-11.37799,0 -99.78874,1.1389 -99.78874,33.04748"/>
   <path id="svg_522" fill="#a7a5a6" d="m404.66007,81.17562c0,8.40507 5.99211,13.69087 10.77216,16.74875c21.32974,13.63721 66.69732,16.29872 89.01618,16.29872c11.36443,0 99.98815,-1.15538 99.98815,-33.04748c0,-31.89606 -88.62532,-33.05183 -99.98815,-33.05183c-11.37799,0 -99.78874,1.14296 -99.78874,33.05183"/>
   <path id="svg_523" fill="#a7a5a6" d="m404.66007,81.56232c0,8.40507 5.99211,13.687 10.77216,16.7444c21.32974,13.64157 66.69732,16.30307 89.01618,16.30307c11.36443,0 99.98815,-1.15538 99.98815,-33.04748c0,-31.89606 -88.62532,-33.05183 -99.98815,-33.05183c-11.37799,0 -99.78874,1.14296 -99.78874,33.05183"/>
   <path id="svg_524" fill="#a7a5a6" d="m404.66007,81.90069c0,8.40507 5.99211,13.69087 10.77216,16.74875c21.32974,13.64157 66.69732,16.29872 89.01618,16.29872c11.36443,0 99.98815,-1.15123 99.98815,-33.04748c0,-31.89219 -88.62532,-33.04748 -99.98815,-33.04748c-11.37799,0 -99.78874,1.13885 -99.78874,33.04748"/>
   <path id="svg_525" fill="#a7a5a6" d="m404.66007,82.2874c0,8.40507 5.99211,13.69087 10.77216,16.74875c21.32974,13.64157 66.69732,16.29872 89.01618,16.29872c11.36443,0 99.98815,-1.15123 99.98815,-33.04748c0,-31.89654 -88.62532,-33.04748 -99.98815,-33.04748c-11.37799,0 -99.78874,1.13885 -99.78874,33.04748"/>
   <path id="svg_526" fill="#a7a5a6" d="m404.66007,82.62577c0,8.40507 5.99211,13.687 10.77216,16.74875c21.32974,13.63721 66.69732,16.29872 89.01618,16.29872c11.36443,0 99.98815,-1.15533 99.98815,-33.04748c0,-31.89606 -88.62532,-33.05183 -99.98815,-33.05183c-11.37799,0 -99.78874,1.14301 -99.78874,33.05183"/>
   <path id="svg_527" fill="#a7a5a6" d="m404.66007,83.01247c0,8.40942 5.99211,13.69087 10.77216,16.74875c21.32974,13.64157 66.69732,16.30307 89.01618,16.30307c11.36443,0 99.98815,-1.15533 99.98815,-33.05183c0,-31.89219 -88.62532,-33.04748 -99.98815,-33.04748c-11.37799,0 -99.78874,1.14301 -99.78874,33.04748"/>
   <path id="svg_528" fill="#a7a5a6" d="m404.66007,83.35084c0,8.40507 5.99211,13.69087 10.77216,16.74875c21.32974,13.64157 66.69732,16.29872 89.01618,16.29872c11.36443,0 99.98815,-1.15127 99.98815,-33.04748c0,-31.89654 -88.62532,-33.04748 -99.98815,-33.04748c-11.37799,0 -99.78874,1.13885 -99.78874,33.04748"/>
   <path id="svg_529" fill="#a7a5a6" d="m404.66007,83.73755c0,8.40507 5.99211,13.69087 10.77216,16.74875c21.32974,13.63721 66.69732,16.29872 89.01618,16.29872c11.36443,0 99.98815,-1.15127 99.98815,-33.04748c0,-31.89654 -88.62532,-33.04748 -99.98815,-33.04748c-11.37799,0 -99.78874,1.13885 -99.78874,33.04748"/>
   <path id="svg_530" fill="#a7a5a6" d="m404.66007,84.07592c0,8.40507 5.99211,13.687 10.77216,16.7444c21.32974,13.64157 66.69732,16.30307 89.01618,16.30307c11.36443,0 99.98815,-1.15538 99.98815,-33.04748c0,-31.89654 -88.62532,-33.05183 -99.98815,-33.05183c-11.37799,0 -99.78874,1.14296 -99.78874,33.05183"/>
   <path id="svg_531" fill="#a7a5a6" d="m415.42864,101.18769c21.32974,13.64157 66.69732,16.30307 89.01618,16.30307c11.36443,0 99.98815,-1.15533 99.98815,-33.05183c0,-31.89219 -88.62532,-33.04748 -99.98815,-33.04748c-11.37799,0 -99.78874,1.13885 -99.78874,33.04748c0,8.40942 5.99211,13.69087 10.77216,16.74875"/>
   <path stroke-width="2.5967" stroke-miterlimit="3.864" stroke="#231f20" id="svg_532" fill="#bdbcbc" d="m404.66007,410.0214c0,8.40507 5.99211,13.69087 10.77216,16.74875c21.32974,13.64157 66.69732,16.29872 89.01618,16.29872c11.36443,0 99.98815,-1.15123 99.98815,-33.04748c0,-31.89219 -88.62532,-33.04748 -99.98815,-33.04748c-11.37799,0 -99.78874,1.13885 -99.78874,33.04748l0.0004,0z"/>
   <path stroke-width="2.5967" stroke-miterlimit="3.864" stroke="#231f20" id="svg_533" fill="#bdbcbc" d="m404.66007,410.4081c0,8.40507 5.99211,13.69087 10.77216,16.74875c21.32974,13.64157 66.69732,16.29872 89.01618,16.29872c11.36443,0 99.98815,-1.15123 99.98815,-33.04748s-88.62532,-33.04748 -99.98815,-33.04748c-11.37799,0 -99.78874,1.13885 -99.78874,33.04748l0.0004,0z"/>
   <path stroke-width="2.5967" stroke-miterlimit="3.864" stroke="#231f20" id="svg_534" fill="#bdbcbc" d="m404.66007,410.74647c0,8.40507 5.99211,13.687 10.77216,16.74875c21.32974,13.63721 66.69732,16.29872 89.01618,16.29872c11.36443,0 99.98815,-1.15538 99.98815,-33.04748c0,-31.89606 -88.62532,-33.05183 -99.98815,-33.05183c-11.37799,0 -99.78874,1.14301 -99.78874,33.05183l0.0004,0z"/>
   <path stroke-width="2.5967" stroke-miterlimit="3.864" stroke="#231f20" id="svg_535" fill="#bdbcbc" d="m404.66007,411.13318c0,8.40942 5.99211,13.69087 10.77216,16.74875c21.32974,13.64157 66.69732,16.30307 89.01618,16.30307c11.36443,0 99.98815,-1.15538 99.98815,-33.05183c0,-31.89219 -88.62532,-33.04748 -99.98815,-33.04748c-11.37799,0 -99.78874,1.14301 -99.78874,33.04748l0.0004,0z"/>
   <path stroke-width="2.5967" stroke-miterlimit="3.864" stroke="#231f20" id="svg_536" fill="#bdbcbc" d="m404.66007,411.47155c0,8.40507 5.99211,13.69087 10.77216,16.74875c21.32974,13.64157 66.69732,16.29872 89.01618,16.29872c11.36443,0 99.98815,-1.15127 99.98815,-33.04748c0,-31.89219 -88.62532,-33.04748 -99.98815,-33.04748c-11.37799,0 -99.78874,1.13885 -99.78874,33.04748l0.0004,0z"/>
   <path stroke-width="2.5967" stroke-miterlimit="3.864" stroke="#231f20" id="svg_537" fill="#bdbcbc" d="m404.66007,411.85825c0,8.40507 5.99211,13.69087 10.77216,16.74875c21.32974,13.63721 66.69732,16.29872 89.01618,16.29872c11.36443,0 99.98815,-1.15123 99.98815,-33.04748c0,-31.89654 -88.62532,-33.04748 -99.98815,-33.04748c-11.37799,0 -99.78874,1.13885 -99.78874,33.04748l0.0004,0z"/>
   <path stroke-width="2.5967" stroke-miterlimit="3.864" stroke="#231f20" id="svg_538" fill="#bdbcbc" d="m404.66007,412.19662c0,8.40507 5.99211,13.687 10.77216,16.74875c21.32974,13.63721 66.69732,16.29872 89.01618,16.29872c11.36443,0 99.98815,-1.15533 99.98815,-33.04748c0,-31.89654 -88.62532,-33.05183 -99.98815,-33.05183c-11.37799,0 -99.78874,1.14296 -99.78874,33.05183l0.0004,0z"/>
   <path stroke-width="2.5967" stroke-miterlimit="3.864" stroke="#231f20" id="svg_539" fill="#bdbcbc" d="m404.66007,412.58333c0,8.40942 5.99211,13.69087 10.77216,16.74875c21.32974,13.64157 66.69732,16.30307 89.01618,16.30307c11.36443,0 99.98815,-1.15533 99.98815,-33.05183c0,-31.89219 -88.62532,-33.04748 -99.98815,-33.04748c-11.37799,0 -99.78874,1.14301 -99.78874,33.04748l0.0004,0z"/>
   <path stroke-width="2.5967" stroke-miterlimit="3.864" stroke="#231f20" id="svg_540" fill="#bdbcbc" d="m404.66007,412.9217c0,8.40507 5.99211,13.69087 10.77216,16.74875c21.32974,13.64157 66.69732,16.29872 89.01618,16.29872c11.36443,0 99.98815,-1.15123 99.98815,-33.04748c0,-31.89219 -88.62532,-33.04748 -99.98815,-33.04748c-11.37799,0 -99.78874,1.1389 -99.78874,33.04748l0.0004,0z"/>
   <path stroke-width="2.5967" stroke-miterlimit="3.864" stroke="#231f20" id="svg_541" fill="#bdbcbc" d="m404.66007,413.3084c0,8.40507 5.99211,13.69087 10.77216,16.74875c21.32974,13.64157 66.69732,16.29872 89.01618,16.29872c11.36443,0 99.98815,-1.15123 99.98815,-33.04748s-88.62532,-33.04748 -99.98815,-33.04748c-11.37799,0 -99.78874,1.13885 -99.78874,33.04748l0.0004,0z"/>
   <path stroke-width="2.5967" stroke-miterlimit="3.864" stroke="#231f20" id="svg_542" fill="#bdbcbc" d="m404.66007,413.64677c0,8.40507 5.99211,13.687 10.77216,16.74875c21.32974,13.63721 66.69732,16.29872 89.01618,16.29872c11.36443,0 99.98815,-1.15538 99.98815,-33.04748c0,-31.89654 -88.62532,-33.05183 -99.98815,-33.05183c-11.37799,0 -99.78874,1.14296 -99.78874,33.05183l0.0004,0z"/>
   <path stroke-width="2.5967" stroke-miterlimit="3.864" stroke="#231f20" id="svg_543" fill="#bdbcbc" d="m404.66007,414.03348c0,8.40942 5.99211,13.69087 10.77216,16.74875c21.32974,13.64157 66.69732,16.30307 89.01618,16.30307c11.36443,0 99.98815,-1.15538 99.98815,-33.05183c0,-31.89219 -88.62532,-33.04748 -99.98815,-33.04748c-11.37799,0 -99.78874,1.14296 -99.78874,33.04748l0.0004,0z"/>
   <path stroke-width="2.5967" stroke-miterlimit="3.864" stroke="#231f20" id="svg_544" fill="#bdbcbc" d="m404.66007,414.37185c0,8.40507 5.99211,13.69087 10.77216,16.74875c21.32974,13.64157 66.69732,16.29872 89.01618,16.29872c11.36443,0 99.98815,-1.15123 99.98815,-33.04748c0,-31.89219 -88.62532,-33.04748 -99.98815,-33.04748c-11.37799,0 -99.78874,1.13885 -99.78874,33.04748l0.0004,0z"/>
   <path stroke-width="2.5967" stroke-miterlimit="3.864" stroke="#231f20" id="svg_545" fill="#bdbcbc" d="m404.66007,414.75855c0,8.40507 5.99211,13.69087 10.77216,16.74875c21.32974,13.63721 66.69732,16.29872 89.01618,16.29872c11.36443,0 99.98815,-1.15123 99.98815,-33.04748s-88.62532,-33.04748 -99.98815,-33.04748c-11.37799,0 -99.78874,1.13885 -99.78874,33.04748l0.0004,0z"/>
   <path stroke-width="2.5967" stroke-miterlimit="3.864" stroke="#231f20" id="svg_546" fill="#bdbcbc" d="m404.66007,415.09692c0,8.40507 5.99211,13.687 10.77216,16.74875c21.32974,13.63721 66.69732,16.29872 89.01618,16.29872c11.36443,0 99.98815,-1.15538 99.98815,-33.04748c0,-31.89606 -88.62532,-33.05183 -99.98815,-33.05183c-11.37799,0 -99.78874,1.14301 -99.78874,33.05183l0.0004,0z"/>
   <path stroke-width="2.5967" stroke-miterlimit="3.864" stroke="#231f20" id="svg_547" fill="#bdbcbc" d="m404.66007,415.48363c0,8.40942 5.99211,13.69087 10.77216,16.74875c21.32974,13.64157 66.69732,16.30307 89.01618,16.30307c11.36443,0 99.98815,-1.15538 99.98815,-33.05183c0,-31.89219 -88.62532,-33.04748 -99.98815,-33.04748c-11.37799,0 -99.78874,1.13885 -99.78874,33.04748l0.0004,0z"/>
   <path stroke-width="2.5967" stroke-miterlimit="3.864" stroke="#231f20" id="svg_548" fill="#bdbcbc" d="m404.66007,415.822c0,8.40507 5.99211,13.69087 10.77216,16.74875c21.32974,13.64157 66.69732,16.29872 89.01618,16.29872c11.36443,0 99.98815,-1.15127 99.98815,-33.04748c0,-31.89654 -88.62532,-33.04748 -99.98815,-33.04748c-11.37799,0 -99.78874,1.13885 -99.78874,33.04748l0.0004,0z"/>
   <path stroke-width="2.5967" stroke-miterlimit="3.864" stroke="#231f20" id="svg_549" fill="#bdbcbc" d="m404.66007,416.2087c0,8.40507 5.99211,13.69087 10.77216,16.74875c21.32974,13.64157 66.69732,16.29872 89.01618,16.29872c11.36443,0 99.98815,-1.15533 99.98815,-33.04748c0,-31.89654 -88.62532,-33.04748 -99.98815,-33.04748c-11.37799,0 -99.78874,1.13885 -99.78874,33.04748l0.0004,0z"/>
   <path stroke-width="2.5967" stroke-miterlimit="3.864" stroke="#231f20" id="svg_550" fill="#bdbcbc" d="m404.66007,416.54707c0,8.40507 5.99211,13.687 10.77216,16.7444c21.32974,13.64157 66.69732,16.30307 89.01618,16.30307c11.36443,0 99.98815,-1.15533 99.98815,-33.04748c0,-31.89654 -88.62532,-33.05183 -99.98815,-33.05183c-11.37799,0 -99.78874,1.14296 -99.78874,33.05183l0.0004,0z"/>
   <path stroke-width="2.5967" stroke-miterlimit="3.864" stroke="#231f20" id="svg_551" fill="#bdbcbc" d="m404.66007,416.93378c0,8.40942 5.99211,13.69087 10.77216,16.74875c21.32974,13.64157 66.69732,16.29872 89.01618,16.29872c11.36443,0 99.98815,-1.15123 99.98815,-33.04748c0,-31.89219 -88.62532,-33.04748 -99.98815,-33.04748c-11.37799,0 -99.78874,1.13885 -99.78874,33.04748l0.0004,0z"/>
   <path stroke-width="2.5967" stroke-miterlimit="3.864" stroke="#231f20" id="svg_552" fill="#bdbcbc" d="m404.66007,417.27215c0,8.40507 5.99211,13.69087 10.77216,16.74875c21.32974,13.64157 66.69732,16.29872 89.01618,16.29872c11.36443,0 99.98815,-1.15123 99.98815,-33.04748s-88.62532,-33.04748 -99.98815,-33.04748c-11.37799,0 -99.78874,1.1389 -99.78874,33.04748l0.0004,0z"/>
   <path stroke-width="2.5967" stroke-miterlimit="3.864" stroke="#231f20" id="svg_553" fill="#bdbcbc" d="m404.66007,417.65885c0,8.40507 5.99211,13.69087 10.77216,16.74875c21.32974,13.63721 66.69732,16.29872 89.01618,16.29872c11.36443,0 99.98815,-1.15538 99.98815,-33.04748c0,-31.89606 -88.62532,-33.04748 -99.98815,-33.04748c-11.37799,0 -99.78874,1.1389 -99.78874,33.04748l0.0004,0z"/>
   <path stroke-width="2.5967" stroke-miterlimit="3.864" stroke="#231f20" id="svg_554" fill="#bdbcbc" d="m404.66007,417.99722c0,8.40507 5.99211,13.687 10.77216,16.7444c21.32974,13.64157 66.69732,16.30307 89.01618,16.30307c11.36443,0 99.98815,-1.15538 99.98815,-33.04748c0,-31.89606 -88.62532,-33.05183 -99.98815,-33.05183c-11.37799,0 -99.78874,1.14296 -99.78874,33.05183l0.0004,0z"/>
   <path stroke-width="2.5967" stroke-miterlimit="3.864" stroke="#231f20" id="svg_555" fill="#bdbcbc" d="m404.66007,418.38393c0,8.40507 5.99211,13.69087 10.77216,16.74875c21.32974,13.64157 66.69732,16.29872 89.01618,16.29872c11.36443,0 99.98815,-1.15123 99.98815,-33.04748c0,-31.89219 -88.62532,-33.04748 -99.98815,-33.04748c-11.37799,0 -99.78874,1.13885 -99.78874,33.04748l0.0004,0z"/>
   <path stroke-width="2.5967" stroke-miterlimit="3.864" stroke="#231f20" id="svg_556" fill="#bdbcbc" d="m404.66007,418.7223c0,8.40507 5.99211,13.69087 10.77216,16.74875c21.32974,13.64157 66.69732,16.29872 89.01618,16.29872c11.36443,0 99.98815,-1.15123 99.98815,-33.04748c0,-31.89654 -88.62532,-33.04748 -99.98815,-33.04748c-11.37799,0 -99.78874,1.13885 -99.78874,33.04748l0.0004,0z"/>
   <path id="svg_557" fill="#bdbcbc" d="m411.04145,409.68303c0,13.91806 41.77008,25.20361 93.39939,25.20361c51.62532,0 93.47516,-11.28555 93.47516,-25.20361l-0.06461,-323.39321c0,-13.91806 -41.78603,-24.7415 -93.41135,-24.7415s-93.47516,11.28555 -93.47516,25.20361l0.07817,322.934"/>
   <path stroke-width="2.5967" stroke-miterlimit="3.864" stroke="#231f20" id="svg_558" fill="#a7a5a6" d="m415.42864,426.40809c21.32974,13.64157 66.69732,16.30307 89.01618,16.30307c11.36443,0 99.98815,-1.15538 99.98815,-33.04748c0,-31.89654 -88.62532,-33.05183 -99.98815,-33.05183c-11.37799,0 -99.78874,1.14296 -99.78874,33.05183c0,8.40507 5.99211,13.687 10.77216,16.7444l0.0004,0z"/>
   <path stroke-width="0.97399" stroke-miterlimit="3.864" stroke="#231f20" id="svg_559" fill="none" d="m411.04145,409.68303c0,13.91806 41.77008,25.20361 93.39939,25.20361c51.62532,0 93.47516,-11.28555 93.47516,-25.20361l-0.06461,-323.39321c0,-13.91806 -41.78603,-24.7415 -93.41135,-24.7415s-93.47516,11.28555 -93.47516,25.20361l0.07817,322.934l-0.0016,-0.0029z"/>
   <path id="svg_560" fill="#a7a5a6" d="m415.42864,426.40809c21.32974,13.64157 66.69732,16.30307 89.01618,16.30307c11.36443,0 99.98815,-1.15538 99.98815,-33.04748c0,-31.89654 -88.62532,-33.05183 -99.98815,-33.05183c-11.37799,0 -99.78874,1.14296 -99.78874,33.05183c0,8.40507 5.99211,13.687 10.77216,16.7444"/>
   <path id="svg_561" fill="#a7a5a6" d="m404.66007,410.0214c0,8.40507 5.99211,13.69087 10.77216,16.74875c21.32974,13.64157 66.69732,16.29872 89.01618,16.29872c11.36443,0 99.98815,-1.15123 99.98815,-33.04748c0,-31.89219 -88.62532,-33.04748 -99.98815,-33.04748c-11.37799,0 -99.78874,1.13885 -99.78874,33.04748"/>
   <path id="svg_562" fill="#a7a5a6" d="m404.66007,410.4081c0,8.40507 5.99211,13.69087 10.77216,16.74875c21.32974,13.64157 66.69732,16.29872 89.01618,16.29872c11.36443,0 99.98815,-1.15123 99.98815,-33.04748s-88.62532,-33.04748 -99.98815,-33.04748c-11.37799,0 -99.78874,1.13885 -99.78874,33.04748"/>
   <path id="svg_563" fill="#a7a5a6" d="m404.66007,410.74647c0,8.40507 5.99211,13.687 10.77216,16.74875c21.32974,13.63721 66.69732,16.29872 89.01618,16.29872c11.36443,0 99.98815,-1.15538 99.98815,-33.04748c0,-31.89606 -88.62532,-33.05183 -99.98815,-33.05183c-11.37799,0 -99.78874,1.14301 -99.78874,33.05183"/>
   <path id="svg_564" fill="#a7a5a6" d="m404.66007,411.13318c0,8.40942 5.99211,13.69087 10.77216,16.74875c21.32974,13.64157 66.69732,16.30307 89.01618,16.30307c11.36443,0 99.98815,-1.15538 99.98815,-33.05183c0,-31.89219 -88.62532,-33.04748 -99.98815,-33.04748c-11.37799,0 -99.78874,1.14301 -99.78874,33.04748"/>
   <path id="svg_565" fill="#a7a5a6" d="m404.66007,411.47155c0,8.40507 5.99211,13.69087 10.77216,16.74875c21.32974,13.64157 66.69732,16.29872 89.01618,16.29872c11.36443,0 99.98815,-1.15127 99.98815,-33.04748c0,-31.89219 -88.62532,-33.04748 -99.98815,-33.04748c-11.37799,0 -99.78874,1.13885 -99.78874,33.04748"/>
   <path id="svg_566" fill="#a7a5a6" d="m404.66007,411.85825c0,8.40507 5.99211,13.69087 10.77216,16.74875c21.32974,13.63721 66.69732,16.29872 89.01618,16.29872c11.36443,0 99.98815,-1.15123 99.98815,-33.04748c0,-31.89654 -88.62532,-33.04748 -99.98815,-33.04748c-11.37799,0 -99.78874,1.13885 -99.78874,33.04748"/>
   <path id="svg_567" fill="#a7a5a6" d="m404.66007,412.19662c0,8.40507 5.99211,13.687 10.77216,16.74875c21.32974,13.63721 66.69732,16.29872 89.01618,16.29872c11.36443,0 99.98815,-1.15533 99.98815,-33.04748c0,-31.89654 -88.62532,-33.05183 -99.98815,-33.05183c-11.37799,0 -99.78874,1.14296 -99.78874,33.05183"/>
   <path id="svg_568" fill="#a7a5a6" d="m404.66007,412.58333c0,8.40942 5.99211,13.69087 10.77216,16.74875c21.32974,13.64157 66.69732,16.30307 89.01618,16.30307c11.36443,0 99.98815,-1.15533 99.98815,-33.05183c0,-31.89219 -88.62532,-33.04748 -99.98815,-33.04748c-11.37799,0 -99.78874,1.14301 -99.78874,33.04748"/>
   <path id="svg_569" fill="#a7a5a6" d="m404.66007,412.9217c0,8.40507 5.99211,13.69087 10.77216,16.74875c21.32974,13.64157 66.69732,16.29872 89.01618,16.29872c11.36443,0 99.98815,-1.15123 99.98815,-33.04748c0,-31.89219 -88.62532,-33.04748 -99.98815,-33.04748c-11.37799,0 -99.78874,1.1389 -99.78874,33.04748"/>
   <path id="svg_570" fill="#a7a5a6" d="m404.66007,413.3084c0,8.40507 5.99211,13.69087 10.77216,16.74875c21.32974,13.64157 66.69732,16.29872 89.01618,16.29872c11.36443,0 99.98815,-1.15123 99.98815,-33.04748s-88.62532,-33.04748 -99.98815,-33.04748c-11.37799,0 -99.78874,1.13885 -99.78874,33.04748"/>
   <path id="svg_571" fill="#a7a5a6" d="m404.66007,413.64677c0,8.40507 5.99211,13.687 10.77216,16.74875c21.32974,13.63721 66.69732,16.29872 89.01618,16.29872c11.36443,0 99.98815,-1.15538 99.98815,-33.04748c0,-31.89654 -88.62532,-33.05183 -99.98815,-33.05183c-11.37799,0 -99.78874,1.14296 -99.78874,33.05183"/>
   <path id="svg_572" fill="#a7a5a6" d="m404.66007,414.03348c0,8.40942 5.99211,13.69087 10.77216,16.74875c21.32974,13.64157 66.69732,16.30307 89.01618,16.30307c11.36443,0 99.98815,-1.15538 99.98815,-33.05183c0,-31.89219 -88.62532,-33.04748 -99.98815,-33.04748c-11.37799,0 -99.78874,1.14296 -99.78874,33.04748"/>
   <path id="svg_573" fill="#a7a5a6" d="m404.66007,414.37185c0,8.40507 5.99211,13.69087 10.77216,16.74875c21.32974,13.64157 66.69732,16.29872 89.01618,16.29872c11.36443,0 99.98815,-1.15123 99.98815,-33.04748c0,-31.89219 -88.62532,-33.04748 -99.98815,-33.04748c-11.37799,0 -99.78874,1.13885 -99.78874,33.04748"/>
   <path id="svg_574" fill="#a7a5a6" d="m404.66007,414.75855c0,8.40507 5.99211,13.69087 10.77216,16.74875c21.32974,13.63721 66.69732,16.29872 89.01618,16.29872c11.36443,0 99.98815,-1.15123 99.98815,-33.04748s-88.62532,-33.04748 -99.98815,-33.04748c-11.37799,0 -99.78874,1.13885 -99.78874,33.04748"/>
   <path id="svg_575" fill="#a7a5a6" d="m404.66007,415.09692c0,8.40507 5.99211,13.687 10.77216,16.74875c21.32974,13.63721 66.69732,16.29872 89.01618,16.29872c11.36443,0 99.98815,-1.15538 99.98815,-33.04748c0,-31.89606 -88.62532,-33.05183 -99.98815,-33.05183c-11.37799,0 -99.78874,1.14301 -99.78874,33.05183"/>
   <path id="svg_576" fill="#a7a5a6" d="m404.66007,415.48363c0,8.40942 5.99211,13.69087 10.77216,16.74875c21.32974,13.64157 66.69732,16.30307 89.01618,16.30307c11.36443,0 99.98815,-1.15538 99.98815,-33.05183c0,-31.89219 -88.62532,-33.04748 -99.98815,-33.04748c-11.37799,0 -99.78874,1.13885 -99.78874,33.04748"/>
   <path id="svg_577" fill="#a7a5a6" d="m404.66007,415.822c0,8.40507 5.99211,13.69087 10.77216,16.74875c21.32974,13.64157 66.69732,16.29872 89.01618,16.29872c11.36443,0 99.98815,-1.15127 99.98815,-33.04748c0,-31.89654 -88.62532,-33.04748 -99.98815,-33.04748c-11.37799,0 -99.78874,1.13885 -99.78874,33.04748"/>
   <path id="svg_578" fill="#a7a5a6" d="m404.66007,416.2087c0,8.40507 5.99211,13.69087 10.77216,16.74875c21.32974,13.64157 66.69732,16.29872 89.01618,16.29872c11.36443,0 99.98815,-1.15533 99.98815,-33.04748c0,-31.89654 -88.62532,-33.04748 -99.98815,-33.04748c-11.37799,0 -99.78874,1.13885 -99.78874,33.04748"/>
   <path id="svg_579" fill="#a7a5a6" d="m404.66007,416.54707c0,8.40507 5.99211,13.687 10.77216,16.7444c21.32974,13.64157 66.69732,16.30307 89.01618,16.30307c11.36443,0 99.98815,-1.15533 99.98815,-33.04748c0,-31.89654 -88.62532,-33.05183 -99.98815,-33.05183c-11.37799,0 -99.78874,1.14296 -99.78874,33.05183"/>
   <path id="svg_580" fill="#a7a5a6" d="m404.66007,416.93378c0,8.40942 5.99211,13.69087 10.77216,16.74875c21.32974,13.64157 66.69732,16.29872 89.01618,16.29872c11.36443,0 99.98815,-1.15123 99.98815,-33.04748c0,-31.89219 -88.62532,-33.04748 -99.98815,-33.04748c-11.37799,0 -99.78874,1.13885 -99.78874,33.04748"/>
   <path id="svg_581" fill="#a7a5a6" d="m404.66007,417.27215c0,8.40507 5.99211,13.69087 10.77216,16.74875c21.32974,13.64157 66.69732,16.29872 89.01618,16.29872c11.36443,0 99.98815,-1.15123 99.98815,-33.04748s-88.62532,-33.04748 -99.98815,-33.04748c-11.37799,0 -99.78874,1.1389 -99.78874,33.04748"/>
   <path id="svg_582" fill="#a7a5a6" d="m404.66007,417.65885c0,8.40507 5.99211,13.69087 10.77216,16.74875c21.32974,13.63721 66.69732,16.29872 89.01618,16.29872c11.36443,0 99.98815,-1.15538 99.98815,-33.04748c0,-31.89606 -88.62532,-33.04748 -99.98815,-33.04748c-11.37799,0 -99.78874,1.1389 -99.78874,33.04748"/>
   <path id="svg_583" fill="#a7a5a6" d="m404.66007,417.99722c0,8.40507 5.99211,13.687 10.77216,16.7444c21.32974,13.64157 66.69732,16.30307 89.01618,16.30307c11.36443,0 99.98815,-1.15538 99.98815,-33.04748c0,-31.89606 -88.62532,-33.05183 -99.98815,-33.05183c-11.37799,0 -99.78874,1.14296 -99.78874,33.05183"/>
   <path id="svg_584" fill="#a7a5a6" d="m404.66007,418.38393c0,8.40507 5.99211,13.69087 10.77216,16.74875c21.32974,13.64157 66.69732,16.29872 89.01618,16.29872c11.36443,0 99.98815,-1.15123 99.98815,-33.04748c0,-31.89219 -88.62532,-33.04748 -99.98815,-33.04748c-11.37799,0 -99.78874,1.13885 -99.78874,33.04748"/>
   <path id="svg_585" fill="#a7a5a6" d="m404.66007,418.7223c0,8.40507 5.99211,13.69087 10.77216,16.74875c21.32974,13.64157 66.69732,16.29872 89.01618,16.29872c11.36443,0 99.98815,-1.15123 99.98815,-33.04748c0,-31.89654 -88.62532,-33.04748 -99.98815,-33.04748c-11.37799,0 -99.78874,1.13885 -99.78874,33.04748"/>
   <path id="svg_586" fill="#a7a5a6" d="m415.42864,435.83407c21.32974,13.63721 66.69732,16.29872 89.01618,16.29872c11.36443,0 99.98815,-1.15533 99.98815,-33.04748c0,-31.89606 -88.62532,-33.05183 -99.98815,-33.05183c-11.37799,0 -99.78874,1.14301 -99.78874,33.05183c0,8.40507 5.99211,13.687 10.77216,16.74875"/>
   <path id="svg_587" fill="#d3d2d2" d="m504.44881,439.60446c5.52228,0 29.81378,-0.26828 52.72211,-4.42339c11.50402,-2.08793 21.83028,-5.02187 29.0205,-8.91262c3.59184,-1.94349 5.77754,-3.80447 6.94852,-5.28145c0.54473,-0.685 0.76604,-1.15949 0.85116,-1.3906c-0.08495,-0.23106 -0.30631,-1.67937 -0.85116,-2.36848c-1.17114,-1.47722 -3.35688,-3.33404 -6.94852,-5.27758c-7.19061,-3.89109 -17.51647,-6.82924 -29.0205,-8.91262c-22.90953,-4.15516 -47.20223,-4.4275 -52.72211,-4.4275c-5.52547,0 -29.76632,0.26828 -52.62639,4.41929c-11.4769,2.08377 -21.77245,5.02187 -28.93873,8.90876c-3.58163,1.94349 -5.76039,3.80031 -6.92818,5.27323c-0.54134,0.68495 -0.76265,1.15949 -0.84777,1.39466c0,0.48691 0.4256,3.12362 5.15775,6.14815c18.65355,11.93329 61.28512,14.85051 84.18229,14.85051"/>
   <path stroke-width="0.64876" stroke-miterlimit="3.864" stroke="#231f20" id="svg_588" fill="#231f20" d="m425.16024,419.97909c0,3.94475 11.6472,7.14682 26.01088,7.14682c14.36726,0 26.01088,-3.20198 26.01088,-7.14682c0,-3.94886 -11.64361,-7.15069 -26.01088,-7.15069c-14.36407,0 -26.01088,3.20203 -26.01088,7.15069z"/>
   <path id="svg_589" fill="#a7a5a6" d="m483.78911,427.32652l19.31762,0l5.33164,-16.88072l-19.31762,0l-5.33164,16.88072zm-15.07201,0l10.03312,0l5.33164,-16.88072l-10.02992,0l-5.33483,16.88072zm44.5739,-15.38706l-4.38839,13.89341c-1.0418,3.29692 -5.06601,5.97075 -8.98817,5.97075l-30.13046,0c-3.92207,0 -6.25415,-2.67384 -5.21239,-5.97075l4.38839,-13.89341c1.0418,-3.30103 5.06242,-5.9751 8.98458,-5.9751l30.13404,0c3.92207,0 6.25415,2.67388 5.21239,5.9751"/>
   <path stroke-width="0.37047" stroke-miterlimit="3.864" stroke="#231f20" id="svg_590" fill="none" d="m483.78911,427.32652l19.31762,0l5.33164,-16.88072l-19.31762,0l-5.33164,16.88072zm-15.07201,0l10.03312,0l5.33164,-16.88072l-10.02992,0l-5.33483,16.88072zm44.5739,-15.38706l-4.38839,13.89341c-1.0418,3.29692 -5.06601,5.97075 -8.98817,5.97075l-30.13046,0c-3.92207,0 -6.25415,-2.67384 -5.21239,-5.97075l4.38839,-13.89341c1.0418,-3.30103 5.06242,-5.9751 8.98458,-5.9751l30.13404,0c3.92207,0 6.25415,2.67388 5.21239,5.9751z"/>
   <path stroke-width="0.32353" stroke-miterlimit="3.864" stroke="#ffffff" id="svg_591" fill="#d3d2d2" d="m452.52038,425.63468c0,4.54719 3.04368,8.23589 6.79896,8.23589c3.75185,0 6.79537,-3.68889 6.79537,-8.23589c0,-4.5513 -3.04368,-8.24024 -6.79537,-8.24024c-3.75524,0 -6.79896,3.68894 -6.79896,8.24024z"/>
   <path stroke-width="0.32353" stroke-miterlimit="3.864" stroke="#bdbcbc" id="svg_592" fill="#d3d2d2" d="m423.00652,473.19962c0,3.12362 2.09381,5.66139 4.67436,5.66139c2.58067,0 4.67117,-2.53767 4.67117,-5.66139c0,-3.12773 -2.09042,-5.66525 -4.67117,-5.66525c-2.58067,0 -4.67436,2.53767 -4.67436,5.66525z"/>
   <path stroke-width="0.32353" stroke-miterlimit="3.864" stroke="#ffffff" id="svg_593" fill="#d3d2d2" d="m432.73812,441.97304c0,3.12773 2.09385,5.66525 4.67436,5.66525c2.58067,0 4.67117,-2.53767 4.67117,-5.66525c0,-3.12773 -2.09038,-5.66139 -4.67117,-5.66139c-2.58067,0 -4.67436,2.53356 -4.67436,5.66139z"/>
   <path stroke-width="0.32353" stroke-miterlimit="3.864" stroke="#bdbcbc" id="svg_594" fill="#d3d2d2" d="m436.52706,455.84615c0,4.5513 3.04368,8.23589 6.79537,8.23589c3.75524,0 6.79537,-3.68478 6.79537,-8.23589c0,-4.54719 -3.04029,-8.23589 -6.79537,-8.23589c-3.75185,0 -6.79537,3.68894 -6.79537,8.23589z"/>
   <path stroke-width="0.32353" stroke-miterlimit="3.864" stroke="#bdbcbc" id="svg_595" fill="#d3d2d2" d="m437.80333,493.79175c0,3.12773 2.09381,5.66139 4.67436,5.66139c2.58067,0 4.67117,-2.53356 4.67117,-5.66139c0,-3.12773 -2.09042,-5.66139 -4.67117,-5.66139c-2.58067,0 -4.67436,2.53356 -4.67436,5.66139z"/>
   <path stroke-width="0.32353" stroke-miterlimit="3.864" stroke="#ffffff" id="svg_596" fill="#d3d2d2" d="m440.67495,419.93076c0,2.32314 1.55251,4.20471 3.46927,4.20471c1.91338,0 3.46927,-1.88157 3.46927,-4.20471c0,-2.32309 -1.5559,-4.20466 -3.46927,-4.20466c-1.91677,0 -3.46927,1.88157 -3.46927,4.20466z"/>
   <path stroke-width="0.97399" stroke-miterlimit="3.864" stroke="#231f20" id="svg_597" fill="#ffffff" d="m410.80215,142.4203c114.99635,-0.59007 186.39595,75.89604 186.39595,75.89604l0,136.73952s-71.3996,-76.48577 -186.39595,-75.89604l0,-136.73952z"/>
  </g>
  <text transform="rotate(5.11534, 507.439, 302.745) matrix(3.07026, 0, 0, 3.37805, -1661.6, -533.321)" y="256.79364" xml:space="preserve" x="706.46782" text-anchor="middle" stroke-width="0" stroke="#000000" id="svg_246" font-weight="bold" font-size="24" font-family="'Open Sans'" fill="#00007f">UVIT</text>
  <g id="svg_718">
   <path transform="rotate(-173.388, 296.514, 471.41)" stroke-width="2.5967" stroke-miterlimit="3.864" stroke="#231f20" id="svg_600" fill="#bdbcbc" d="m193.50492,471.40977c0,8.60723 6.17931,14.02016 11.10869,17.15159c21.99611,13.96521 68.78103,16.69073 91.79715,16.69073c11.71947,0 103.1119,-1.17891 103.1119,-33.84232c0,-32.6637 -91.39408,-33.84232 -103.1119,-33.84232c-11.73345,0 -102.90625,1.16624 -102.90625,33.84232l0.00041,0z"/>
   <path transform="rotate(-173.388, 296.553, 471.068)" stroke-width="2.5967" stroke-miterlimit="3.864" stroke="#231f20" id="svg_601" fill="#bdbcbc" d="m193.54457,471.07003c0,8.60723 6.17931,14.0162 11.10869,17.15159c21.99611,13.96521 68.78103,16.69073 91.79715,16.69073c11.71947,0 103.1119,-1.18312 103.1119,-33.84232c0,-32.6637 -91.39408,-33.84677 -103.1119,-33.84677c-11.73345,0 -102.90625,1.17045 -102.90625,33.84677l0.00041,0z"/>
   <path transform="rotate(-173.388, 296.599, 470.67)" stroke-width="2.5967" stroke-miterlimit="3.864" stroke="#231f20" id="svg_602" fill="#bdbcbc" d="m193.59068,470.66779c0,8.61168 6.17931,14.02016 11.10869,17.15159c21.99611,13.96966 68.78103,16.69519 91.79715,16.69519c11.71947,0 103.1119,-1.18312 103.1119,-33.84677c0,-32.65924 -91.39408,-33.84232 -103.1119,-33.84232c-11.73345,0 -102.90625,1.16629 -102.90625,33.84232l0.00041,0z"/>
   <path transform="rotate(-173.388, 296.639, 470.328)" stroke-width="2.5967" stroke-miterlimit="3.864" stroke="#231f20" id="svg_603" fill="#bdbcbc" d="m193.63032,470.32802c0,8.60723 6.17931,14.02016 11.10869,17.15159c21.99611,13.96966 68.78103,16.69073 91.79715,16.69073c11.71947,0 103.1119,-1.17891 103.1119,-33.84232s-91.39408,-33.84232 -103.1119,-33.84232c-11.73345,0 -102.90625,1.16629 -102.90625,33.84232l0.00041,0z"/>
   <path transform="rotate(-173.388, 296.685, 469.935)" stroke-width="2.5967" stroke-miterlimit="3.864" stroke="#231f20" id="svg_604" fill="#bdbcbc" d="m193.67592,469.93463c0,8.60723 6.17931,14.02016 11.10869,17.15159c21.99611,13.96521 68.78103,16.69073 91.79715,16.69073c11.71947,0 103.1119,-1.17891 103.1119,-33.84232s-91.39408,-33.84232 -103.1119,-33.84232c-11.73345,0 -102.90625,1.16624 -102.90625,33.84232l0.00041,0z"/>
   <path transform="rotate(-173.388, 296.724, 469.593)" stroke-width="2.5967" stroke-miterlimit="3.864" stroke="#231f20" id="svg_605" fill="#bdbcbc" d="m193.71556,469.59486c0,8.60723 6.17931,14.0162 11.10869,17.14713c21.99611,13.96966 68.78103,16.69519 91.79715,16.69519c11.71947,0 103.1119,-1.18317 103.1119,-33.84232c0,-32.6637 -91.39408,-33.84677 -103.1119,-33.84677c-11.73345,0 -102.90625,1.17045 -102.90625,33.84677l0.00041,0z"/>
   <path transform="rotate(-173.388, 296.764, 469.246)" stroke-width="2.5967" stroke-miterlimit="3.864" stroke="#231f20" id="svg_606" fill="#bdbcbc" d="m193.75572,469.24623c0,8.60723 6.17931,14.02016 11.10869,17.15159c21.99611,13.96966 68.78103,16.69073 91.79715,16.69073c11.71947,0 103.1119,-1.17891 103.1119,-33.84232c0,-32.65924 -91.39408,-33.84232 -103.1119,-33.84232c-11.73345,0 -102.90625,1.16624 -102.90625,33.84232l0.00041,0z"/>
   <path transform="rotate(-173.388, 296.81, 468.853)" stroke-width="2.5967" stroke-miterlimit="3.864" stroke="#231f20" id="svg_607" fill="#bdbcbc" d="m193.80132,468.85284c0,8.60723 6.17931,14.02016 11.10869,17.15159c21.99611,13.96966 68.78103,16.69073 91.79715,16.69073c11.71947,0 103.1119,-1.17891 103.1119,-33.84232s-91.39408,-33.84232 -103.1119,-33.84232c-11.73345,0 -102.90625,1.16624 -102.90625,33.84232l0.00041,0z"/>
   <path transform="rotate(-173.388, 296.85, 468.509)" stroke-width="2.5967" stroke-miterlimit="3.864" stroke="#231f20" id="svg_608" fill="#bdbcbc" d="m193.84121,468.50864c0,8.60723 6.17931,14.02016 11.10869,17.15159c21.99611,13.96521 68.78103,16.69073 91.79715,16.69073c11.71947,0 103.1119,-1.18312 103.1119,-33.84232c0,-32.6632 -91.39408,-33.84232 -103.1119,-33.84232c-11.73345,0 -102.90625,1.16624 -102.90625,33.84232l0.00041,0z"/>
   <path transform="rotate(-173.388, 296.895, 468.117)" stroke-width="2.5967" stroke-miterlimit="3.864" stroke="#231f20" id="svg_609" fill="#bdbcbc" d="m193.88656,468.11974c0,8.60723 6.17931,14.0162 11.10869,17.14713c21.99611,13.96966 68.78103,16.69519 91.79715,16.69519c11.71947,0 103.1119,-1.18317 103.1119,-33.84232c0,-32.6632 -91.39408,-33.84677 -103.1119,-33.84677c-11.73345,0 -102.90625,1.1705 -102.90625,33.84677l0.00041,0z"/>
   <path transform="rotate(-173.388, 296.935, 467.771)" stroke-width="2.5967" stroke-miterlimit="3.864" stroke="#231f20" id="svg_610" fill="#bdbcbc" d="m193.92671,467.77109c0,8.60723 6.17931,14.02016 11.10869,17.15159c21.99611,13.96966 68.78103,16.69073 91.79715,16.69073c11.71947,0 103.1119,-1.17896 103.1119,-33.84232c0,-32.65924 -91.39408,-33.84232 -103.1119,-33.84232c-11.73345,0 -102.90625,1.16624 -102.90625,33.84232l0.00041,0z"/>
   <path transform="rotate(-173.388, 296.981, 467.378)" stroke-width="2.5967" stroke-miterlimit="3.864" stroke="#231f20" id="svg_611" fill="#bdbcbc" d="m193.97231,467.3777c0,8.60723 6.17931,14.02016 11.10869,17.15159c21.99611,13.96966 68.78103,16.69073 91.79715,16.69073c11.71947,0 103.1119,-1.17896 103.1119,-33.84232c0,-32.6637 -91.39408,-33.84232 -103.1119,-33.84232c-11.73345,0 -102.90625,1.16624 -102.90625,33.84232l0.00041,0z"/>
   <path transform="rotate(-173.388, 297.021, 467.036)" stroke-width="2.5967" stroke-miterlimit="3.864" stroke="#231f20" id="svg_612" fill="#bdbcbc" d="m194.01195,467.03795c0,8.60723 6.17931,14.02016 11.10869,17.15159c21.99611,13.96521 68.78103,16.69073 91.79715,16.69073c11.71947,0 103.1119,-1.18312 103.1119,-33.84232c0,-32.6637 -91.39408,-33.84677 -103.1119,-33.84677c-11.73345,0 -102.90625,1.17045 -102.90625,33.84677l0.00041,0z"/>
   <path transform="rotate(-173.388, 297.067, 466.638)" stroke-width="2.5967" stroke-miterlimit="3.864" stroke="#231f20" id="svg_613" fill="#bdbcbc" d="m194.05807,466.63568c0,8.61168 6.17931,14.02016 11.10869,17.15159c21.99611,13.96966 68.78103,16.69519 91.79715,16.69519c11.71947,0 103.1119,-1.18312 103.1119,-33.84677c0,-32.65924 -91.39408,-33.84232 -103.1119,-33.84232c-11.73345,0 -102.90625,1.17045 -102.90625,33.84232l0.00041,0z"/>
   <path transform="rotate(-173.388, 297.106, 466.296)" stroke-width="2.5967" stroke-miterlimit="3.864" stroke="#231f20" id="svg_614" fill="#bdbcbc" d="m194.09771,466.29591c0,8.60723 6.17931,14.02016 11.10869,17.15159c21.99611,13.96966 68.78103,16.69073 91.79715,16.69073c11.71947,0 103.1119,-1.17891 103.1119,-33.84232c0,-32.65924 -91.39408,-33.84232 -103.1119,-33.84232c-11.73345,0 -102.90625,1.16629 -102.90625,33.84232l0.00041,0z"/>
   <path transform="rotate(-173.388, 297.152, 465.903)" stroke-width="2.5967" stroke-miterlimit="3.864" stroke="#231f20" id="svg_615" fill="#bdbcbc" d="m194.14331,465.90255c0,8.60723 6.17931,14.02016 11.10869,17.15159c21.99611,13.96966 68.78103,16.69073 91.79715,16.69073c11.71947,0 103.1119,-1.17891 103.1119,-33.84232s-91.39408,-33.84232 -103.1119,-33.84232c-11.73345,0 -102.90625,1.16629 -102.90625,33.84232l0.00041,0z"/>
   <path transform="rotate(-173.388, 297.192, 465.561)" stroke-width="2.5967" stroke-miterlimit="3.864" stroke="#231f20" id="svg_616" fill="#bdbcbc" d="m194.18295,465.56281c0,8.60723 6.17931,14.02016 11.10869,17.15159c21.99611,13.96521 68.78103,16.69073 91.79715,16.69073c11.71947,0 103.1119,-1.18317 103.1119,-33.84232c0,-32.6632 -91.39408,-33.84677 -103.1119,-33.84677c-11.73345,0 -102.90625,1.17045 -102.90625,33.84677l0.00041,0z"/>
   <path transform="rotate(-173.388, 297.237, 465.167)" stroke-width="2.5967" stroke-miterlimit="3.864" stroke="#231f20" id="svg_617" fill="#bdbcbc" d="m194.22855,465.16942c0,8.60723 6.17931,14.0162 11.10869,17.14713c21.99611,13.96966 68.78103,16.69519 91.79715,16.69519c11.71947,0 103.1119,-1.18317 103.1119,-33.84232c0,-32.6632 -91.39408,-33.84677 -103.1119,-33.84677c-11.73345,0 -102.90625,1.17045 -102.90625,33.84677l0.00041,0z"/>
   <path transform="rotate(-173.388, 297.277, 464.821)" stroke-width="2.5967" stroke-miterlimit="3.864" stroke="#231f20" id="svg_618" fill="#bdbcbc" d="m194.2687,464.8208c0,8.60723 6.17931,14.02016 11.10869,17.15159c21.99611,13.96966 68.78103,16.69073 91.79715,16.69073c11.71947,0 103.1119,-1.17891 103.1119,-33.84232c0,-32.65924 -91.39408,-33.84232 -103.1119,-33.84232c-11.73345,0 -102.90625,1.16624 -102.90625,33.84232l0.00041,0z"/>
   <path transform="rotate(-173.388, 297.323, 464.427)" stroke-width="2.5967" stroke-miterlimit="3.864" stroke="#231f20" id="svg_619" fill="#bdbcbc" d="m194.3143,464.4274c0,8.60723 6.17931,14.02016 11.10869,17.15159c21.99611,13.96966 68.78103,16.69073 91.79715,16.69073c11.71947,0 103.1119,-1.17891 103.1119,-33.84232c0,-32.6637 -91.39408,-33.84232 -103.1119,-33.84232c-11.73345,0 -102.90625,1.16624 -102.90625,33.84232l0.00041,0z"/>
   <path transform="rotate(-173.388, 297.363, 464.085)" stroke-width="2.5967" stroke-miterlimit="3.864" stroke="#231f20" id="svg_620" fill="#bdbcbc" d="m194.35395,464.08763c0,8.60723 6.17931,14.0162 11.10869,17.15159c21.99611,13.96521 68.78103,16.69073 91.79715,16.69073c11.71947,0 103.1119,-1.18312 103.1119,-33.84232c0,-32.6632 -91.39408,-33.84677 -103.1119,-33.84677c-11.73345,0 -102.90625,1.1705 -102.90625,33.84677l0.00041,0z"/>
   <path transform="rotate(-173.388, 297.409, 463.688)" stroke-width="2.5967" stroke-miterlimit="3.864" stroke="#231f20" id="svg_621" fill="#bdbcbc" d="m194.40006,463.68539c0,8.61168 6.17931,14.02016 11.10869,17.15159c21.99611,13.96966 68.78103,16.69519 91.79715,16.69519c11.71947,0 103.1119,-1.18312 103.1119,-33.84677c0,-32.65924 -91.39408,-33.84232 -103.1119,-33.84232c-11.73345,0 -102.90625,1.1705 -102.90625,33.84232l0.00041,0z"/>
   <path transform="rotate(-173.388, 297.448, 463.346)" stroke-width="2.5967" stroke-miterlimit="3.864" stroke="#231f20" id="svg_622" fill="#bdbcbc" d="m194.4397,463.34565c0,8.60723 6.17931,14.02016 11.10869,17.15159c21.99611,13.96966 68.78103,16.69073 91.79715,16.69073c11.71947,0 103.1119,-1.17896 103.1119,-33.84232c0,-32.6637 -91.39408,-33.84232 -103.1119,-33.84232c-11.73345,0 -102.90625,1.16624 -102.90625,33.84232l0.00041,0z"/>
   <path transform="rotate(-173.388, 297.494, 462.952)" stroke-width="2.5967" stroke-miterlimit="3.864" stroke="#231f20" id="svg_623" fill="#bdbcbc" d="m194.4853,462.95226c0,8.60723 6.17931,14.02016 11.10869,17.15159c21.99611,13.96521 68.78103,16.69073 91.79715,16.69073c11.71947,0 103.1119,-1.17896 103.1119,-33.84232c0,-32.6637 -91.39408,-33.84232 -103.1119,-33.84232c-11.73345,0 -102.90625,1.16624 -102.90625,33.84232l0.00041,0z"/>
   <path transform="rotate(-173.388, 297.534, 462.61)" stroke-width="2.5967" stroke-miterlimit="3.864" stroke="#231f20" id="svg_624" fill="#bdbcbc" d="m194.52494,462.61249c0,8.60723 6.17931,14.0162 11.10869,17.14713c21.99611,13.96966 68.78103,16.69519 91.79715,16.69519c11.71947,0 103.1119,-1.18317 103.1119,-33.84232c0,-32.6637 -91.39408,-33.84677 -103.1119,-33.84677c-11.73345,0 -102.90625,1.17045 -102.90625,33.84677l0.00041,0z"/>
   <path transform="rotate(-173.388, 296.475, 471.779)" id="svg_625" fill="#a7a5a6" d="m204.57458,488.93007c21.99611,13.96966 68.78103,16.69073 91.79715,16.69073c11.71947,0 103.1119,-1.17896 103.1119,-33.84232c0,-32.6637 -91.39408,-33.84232 -103.1119,-33.84232c-11.73345,0 -102.90625,1.16624 -102.90625,33.84232c0,8.60723 6.17931,14.02016 11.10869,17.15159"/>
   <path transform="rotate(-173.388, 296.514, 471.41)" id="svg_626" fill="#a7a5a6" d="m193.50492,471.40977c0,8.60723 6.17931,14.02016 11.10869,17.15159c21.99611,13.96521 68.78103,16.69073 91.79715,16.69073c11.71947,0 103.1119,-1.17891 103.1119,-33.84232c0,-32.6637 -91.39408,-33.84232 -103.1119,-33.84232c-11.73345,0 -102.90625,1.16624 -102.90625,33.84232"/>
   <path transform="rotate(-173.388, 296.553, 471.068)" id="svg_627" fill="#a7a5a6" d="m193.54457,471.07003c0,8.60723 6.17931,14.0162 11.10869,17.15159c21.99611,13.96521 68.78103,16.69073 91.79715,16.69073c11.71947,0 103.1119,-1.18312 103.1119,-33.84232c0,-32.6637 -91.39408,-33.84677 -103.1119,-33.84677c-11.73345,0 -102.90625,1.17045 -102.90625,33.84677"/>
   <path transform="rotate(-173.388, 296.599, 470.67)" id="svg_628" fill="#a7a5a6" d="m193.59068,470.66779c0,8.61168 6.17931,14.02016 11.10869,17.15159c21.99611,13.96966 68.78103,16.69519 91.79715,16.69519c11.71947,0 103.1119,-1.18312 103.1119,-33.84677c0,-32.65924 -91.39408,-33.84232 -103.1119,-33.84232c-11.73345,0 -102.90625,1.16629 -102.90625,33.84232"/>
   <path transform="rotate(-173.388, 296.639, 470.328)" id="svg_629" fill="#a7a5a6" d="m193.63032,470.32802c0,8.60723 6.17931,14.02016 11.10869,17.15159c21.99611,13.96966 68.78103,16.69073 91.79715,16.69073c11.71947,0 103.1119,-1.17891 103.1119,-33.84232s-91.39408,-33.84232 -103.1119,-33.84232c-11.73345,0 -102.90625,1.16629 -102.90625,33.84232"/>
   <path transform="rotate(-173.388, 296.685, 469.935)" id="svg_630" fill="#a7a5a6" d="m193.67592,469.93463c0,8.60723 6.17931,14.02016 11.10869,17.15159c21.99611,13.96521 68.78103,16.69073 91.79715,16.69073c11.71947,0 103.1119,-1.17891 103.1119,-33.84232s-91.39408,-33.84232 -103.1119,-33.84232c-11.73345,0 -102.90625,1.16624 -102.90625,33.84232"/>
   <path transform="rotate(-173.388, 296.724, 469.593)" id="svg_631" fill="#a7a5a6" d="m193.71556,469.59486c0,8.60723 6.17931,14.0162 11.10869,17.14713c21.99611,13.96966 68.78103,16.69519 91.79715,16.69519c11.71947,0 103.1119,-1.18317 103.1119,-33.84232c0,-32.6637 -91.39408,-33.84677 -103.1119,-33.84677c-11.73345,0 -102.90625,1.17045 -102.90625,33.84677"/>
   <path transform="rotate(-173.388, 296.764, 469.246)" id="svg_632" fill="#a7a5a6" d="m193.75572,469.24623c0,8.60723 6.17931,14.02016 11.10869,17.15159c21.99611,13.96966 68.78103,16.69073 91.79715,16.69073c11.71947,0 103.1119,-1.17891 103.1119,-33.84232c0,-32.65924 -91.39408,-33.84232 -103.1119,-33.84232c-11.73345,0 -102.90625,1.16624 -102.90625,33.84232"/>
   <path transform="rotate(-173.388, 296.81, 468.853)" id="svg_633" fill="#a7a5a6" d="m193.80132,468.85284c0,8.60723 6.17931,14.02016 11.10869,17.15159c21.99611,13.96966 68.78103,16.69073 91.79715,16.69073c11.71947,0 103.1119,-1.17891 103.1119,-33.84232s-91.39408,-33.84232 -103.1119,-33.84232c-11.73345,0 -102.90625,1.16624 -102.90625,33.84232"/>
   <path transform="rotate(-173.388, 296.85, 468.509)" id="svg_634" fill="#a7a5a6" d="m193.84121,468.50864c0,8.60723 6.17931,14.02016 11.10869,17.15159c21.99611,13.96521 68.78103,16.69073 91.79715,16.69073c11.71947,0 103.1119,-1.18312 103.1119,-33.84232c0,-32.6632 -91.39408,-33.84232 -103.1119,-33.84232c-11.73345,0 -102.90625,1.16624 -102.90625,33.84232"/>
   <path transform="rotate(-173.388, 296.895, 468.117)" id="svg_635" fill="#a7a5a6" d="m193.88656,468.11974c0,8.60723 6.17931,14.0162 11.10869,17.14713c21.99611,13.96966 68.78103,16.69519 91.79715,16.69519c11.71947,0 103.1119,-1.18317 103.1119,-33.84232c0,-32.6632 -91.39408,-33.84677 -103.1119,-33.84677c-11.73345,0 -102.90625,1.1705 -102.90625,33.84677"/>
   <path transform="rotate(-173.388, 296.935, 467.771)" id="svg_636" fill="#a7a5a6" d="m193.92671,467.77109c0,8.60723 6.17931,14.02016 11.10869,17.15159c21.99611,13.96966 68.78103,16.69073 91.79715,16.69073c11.71947,0 103.1119,-1.17896 103.1119,-33.84232c0,-32.65924 -91.39408,-33.84232 -103.1119,-33.84232c-11.73345,0 -102.90625,1.16624 -102.90625,33.84232"/>
   <path transform="rotate(-173.388, 296.981, 467.378)" id="svg_637" fill="#a7a5a6" d="m193.97231,467.3777c0,8.60723 6.17931,14.02016 11.10869,17.15159c21.99611,13.96966 68.78103,16.69073 91.79715,16.69073c11.71947,0 103.1119,-1.17896 103.1119,-33.84232c0,-32.6637 -91.39408,-33.84232 -103.1119,-33.84232c-11.73345,0 -102.90625,1.16624 -102.90625,33.84232"/>
   <path transform="rotate(-173.388, 297.021, 467.036)" id="svg_638" fill="#a7a5a6" d="m194.01195,467.03795c0,8.60723 6.17931,14.02016 11.10869,17.15159c21.99611,13.96521 68.78103,16.69073 91.79715,16.69073c11.71947,0 103.1119,-1.18312 103.1119,-33.84232c0,-32.6637 -91.39408,-33.84677 -103.1119,-33.84677c-11.73345,0 -102.90625,1.17045 -102.90625,33.84677"/>
   <path transform="rotate(-173.388, 297.067, 466.638)" id="svg_639" fill="#a7a5a6" d="m194.05807,466.63568c0,8.61168 6.17931,14.02016 11.10869,17.15159c21.99611,13.96966 68.78103,16.69519 91.79715,16.69519c11.71947,0 103.1119,-1.18312 103.1119,-33.84677c0,-32.65924 -91.39408,-33.84232 -103.1119,-33.84232c-11.73345,0 -102.90625,1.17045 -102.90625,33.84232"/>
   <path transform="rotate(-173.388, 297.106, 466.296)" id="svg_640" fill="#a7a5a6" d="m194.09771,466.29591c0,8.60723 6.17931,14.02016 11.10869,17.15159c21.99611,13.96966 68.78103,16.69073 91.79715,16.69073c11.71947,0 103.1119,-1.17891 103.1119,-33.84232c0,-32.65924 -91.39408,-33.84232 -103.1119,-33.84232c-11.73345,0 -102.90625,1.16629 -102.90625,33.84232"/>
   <path transform="rotate(-173.388, 297.152, 465.903)" id="svg_641" fill="#a7a5a6" d="m194.14331,465.90255c0,8.60723 6.17931,14.02016 11.10869,17.15159c21.99611,13.96966 68.78103,16.69073 91.79715,16.69073c11.71947,0 103.1119,-1.17891 103.1119,-33.84232s-91.39408,-33.84232 -103.1119,-33.84232c-11.73345,0 -102.90625,1.16629 -102.90625,33.84232"/>
   <path transform="rotate(-173.388, 297.192, 465.561)" id="svg_642" fill="#a7a5a6" d="m194.18295,465.56281c0,8.60723 6.17931,14.02016 11.10869,17.15159c21.99611,13.96521 68.78103,16.69073 91.79715,16.69073c11.71947,0 103.1119,-1.18317 103.1119,-33.84232c0,-32.6632 -91.39408,-33.84677 -103.1119,-33.84677c-11.73345,0 -102.90625,1.17045 -102.90625,33.84677"/>
   <path transform="rotate(-173.388, 297.237, 465.167)" id="svg_643" fill="#a7a5a6" d="m194.22855,465.16942c0,8.60723 6.17931,14.0162 11.10869,17.14713c21.99611,13.96966 68.78103,16.69519 91.79715,16.69519c11.71947,0 103.1119,-1.18317 103.1119,-33.84232c0,-32.6632 -91.39408,-33.84677 -103.1119,-33.84677c-11.73345,0 -102.90625,1.17045 -102.90625,33.84677"/>
   <path transform="rotate(-173.388, 297.277, 464.821)" id="svg_644" fill="#a7a5a6" d="m194.2687,464.8208c0,8.60723 6.17931,14.02016 11.10869,17.15159c21.99611,13.96966 68.78103,16.69073 91.79715,16.69073c11.71947,0 103.1119,-1.17891 103.1119,-33.84232c0,-32.65924 -91.39408,-33.84232 -103.1119,-33.84232c-11.73345,0 -102.90625,1.16624 -102.90625,33.84232"/>
   <path transform="rotate(-173.388, 297.323, 464.427)" id="svg_645" fill="#a7a5a6" d="m194.3143,464.4274c0,8.60723 6.17931,14.02016 11.10869,17.15159c21.99611,13.96966 68.78103,16.69073 91.79715,16.69073c11.71947,0 103.1119,-1.17891 103.1119,-33.84232c0,-32.6637 -91.39408,-33.84232 -103.1119,-33.84232c-11.73345,0 -102.90625,1.16624 -102.90625,33.84232"/>
   <path transform="rotate(-173.388, 297.363, 464.085)" id="svg_646" fill="#a7a5a6" d="m194.35395,464.08763c0,8.60723 6.17931,14.0162 11.10869,17.15159c21.99611,13.96521 68.78103,16.69073 91.79715,16.69073c11.71947,0 103.1119,-1.18312 103.1119,-33.84232c0,-32.6632 -91.39408,-33.84677 -103.1119,-33.84677c-11.73345,0 -102.90625,1.1705 -102.90625,33.84677"/>
   <path transform="rotate(-173.388, 297.409, 463.688)" id="svg_647" fill="#a7a5a6" d="m194.40006,463.68539c0,8.61168 6.17931,14.02016 11.10869,17.15159c21.99611,13.96966 68.78103,16.69519 91.79715,16.69519c11.71947,0 103.1119,-1.18312 103.1119,-33.84677c0,-32.65924 -91.39408,-33.84232 -103.1119,-33.84232c-11.73345,0 -102.90625,1.1705 -102.90625,33.84232"/>
   <path transform="rotate(-173.388, 297.448, 463.346)" id="svg_648" fill="#a7a5a6" d="m194.4397,463.34565c0,8.60723 6.17931,14.02016 11.10869,17.15159c21.99611,13.96966 68.78103,16.69073 91.79715,16.69073c11.71947,0 103.1119,-1.17896 103.1119,-33.84232c0,-32.6637 -91.39408,-33.84232 -103.1119,-33.84232c-11.73345,0 -102.90625,1.16624 -102.90625,33.84232"/>
   <path transform="rotate(-173.388, 297.494, 462.952)" id="svg_649" fill="#a7a5a6" d="m194.4853,462.95226c0,8.60723 6.17931,14.02016 11.10869,17.15159c21.99611,13.96521 68.78103,16.69073 91.79715,16.69073c11.71947,0 103.1119,-1.17896 103.1119,-33.84232c0,-32.6637 -91.39408,-33.84232 -103.1119,-33.84232c-11.73345,0 -102.90625,1.16624 -102.90625,33.84232"/>
   <path transform="rotate(-173.388, 297.534, 462.61)" id="svg_650" fill="#a7a5a6" d="m194.52494,462.61249c0,8.60723 6.17931,14.0162 11.10869,17.14713c21.99611,13.96966 68.78103,16.69519 91.79715,16.69519c11.71947,0 103.1119,-1.18317 103.1119,-33.84232c0,-32.6637 -91.39408,-33.84677 -103.1119,-33.84677c-11.73345,0 -102.90625,1.17045 -102.90625,33.84677"/>
   <path transform="rotate(-173.388, 297.581, 462.237)" id="svg_651" fill="#a7a5a6" d="m205.68061,479.38634c21.99611,13.96966 68.78103,16.69519 91.79715,16.69519c11.71947,0 103.1119,-1.18312 103.1119,-33.84677c0,-32.65924 -91.39408,-33.84232 -103.1119,-33.84232c-11.73345,0 -102.90625,1.16624 -102.90625,33.84232c0,8.61168 6.17931,14.02016 11.10869,17.15159"/>
   <path transform="rotate(-173.388, 335.968, 131.043)" stroke-width="2.5967" stroke-miterlimit="3.864" stroke="#231f20" id="svg_652" fill="#bdbcbc" d="m232.95937,131.04326c0,8.60723 6.17931,14.02016 11.10869,17.15159c21.99611,13.96966 68.78103,16.69073 91.79715,16.69073c11.71947,0 103.1119,-1.17891 103.1119,-33.84232c0,-32.65924 -91.39408,-33.84232 -103.1119,-33.84232c-11.73345,0 -102.90625,1.16624 -102.90625,33.84232l0.00041,0z"/>
   <path transform="rotate(-173.388, 336.014, 130.65)" stroke-width="2.5967" stroke-miterlimit="3.864" stroke="#231f20" id="svg_653" fill="#bdbcbc" d="m233.00497,130.6499c0,8.60723 6.17931,14.02016 11.10869,17.15159c21.99611,13.96966 68.78103,16.69073 91.79715,16.69073c11.71947,0 103.1119,-1.17891 103.1119,-33.84232s-91.39408,-33.84232 -103.1119,-33.84232c-11.73345,0 -102.90625,1.16624 -102.90625,33.84232l0.00041,0z"/>
   <path transform="rotate(-173.388, 336.053, 130.308)" stroke-width="2.5967" stroke-miterlimit="3.864" stroke="#231f20" id="svg_654" fill="#bdbcbc" d="m233.04461,130.31016c0,8.60723 6.17931,14.0162 11.10869,17.15159c21.99611,13.96521 68.78103,16.69073 91.79715,16.69073c11.71947,0 103.1119,-1.18317 103.1119,-33.84232c0,-32.6632 -91.39408,-33.84677 -103.1119,-33.84677c-11.73345,0 -102.90625,1.1705 -102.90625,33.84677l0.00041,0z"/>
   <path transform="rotate(-173.388, 336.099, 129.91)" stroke-width="2.5967" stroke-miterlimit="3.864" stroke="#231f20" id="svg_655" fill="#bdbcbc" d="m233.09072,129.90786c0,8.61168 6.17931,14.02016 11.10869,17.15159c21.99611,13.96966 68.78103,16.69519 91.79715,16.69519c11.71947,0 103.1119,-1.18317 103.1119,-33.84677c0,-32.65924 -91.39408,-33.84232 -103.1119,-33.84232c-11.73345,0 -102.90625,1.1705 -102.90625,33.84232l0.00041,0z"/>
   <path transform="rotate(-173.388, 336.139, 129.568)" stroke-width="2.5967" stroke-miterlimit="3.864" stroke="#231f20" id="svg_656" fill="#bdbcbc" d="m233.13037,129.56815c0,8.60723 6.17931,14.02016 11.10869,17.15159c21.99611,13.96966 68.78103,16.69073 91.79715,16.69073c11.71947,0 103.1119,-1.17896 103.1119,-33.84232c0,-32.65924 -91.39408,-33.84232 -103.1119,-33.84232c-11.73345,0 -102.90625,1.16624 -102.90625,33.84232l0.00041,0z"/>
   <path transform="rotate(-173.388, 336.185, 129.175)" stroke-width="2.5967" stroke-miterlimit="3.864" stroke="#231f20" id="svg_657" fill="#bdbcbc" d="m233.17596,129.17479c0,8.60723 6.17931,14.02016 11.10869,17.15159c21.99611,13.96521 68.78103,16.69073 91.79715,16.69073c11.71947,0 103.1119,-1.17891 103.1119,-33.84232c0,-32.6637 -91.39408,-33.84232 -103.1119,-33.84232c-11.73345,0 -102.90625,1.16624 -102.90625,33.84232l0.00041,0z"/>
   <path transform="rotate(-173.388, 336.224, 128.833)" stroke-width="2.5967" stroke-miterlimit="3.864" stroke="#231f20" id="svg_658" fill="#bdbcbc" d="m233.21561,128.83498c0,8.60723 6.17931,14.0162 11.10869,17.15159c21.99611,13.96521 68.78103,16.69073 91.79715,16.69073c11.71947,0 103.1119,-1.18312 103.1119,-33.84232c0,-32.6637 -91.39408,-33.84677 -103.1119,-33.84677c-11.73345,0 -102.90625,1.17045 -102.90625,33.84677l0.00041,0z"/>
   <path transform="rotate(-173.388, 336.27, 128.435)" stroke-width="2.5967" stroke-miterlimit="3.864" stroke="#231f20" id="svg_659" fill="#bdbcbc" d="m233.26172,128.43274c0,8.61168 6.17931,14.02016 11.10869,17.15159c21.99611,13.96966 68.78103,16.69519 91.79715,16.69519c11.71947,0 103.1119,-1.18312 103.1119,-33.84677c0,-32.65924 -91.39408,-33.84232 -103.1119,-33.84232c-11.73345,0 -102.90625,1.1705 -102.90625,33.84232l0.00041,0z"/>
   <path transform="rotate(-173.388, 336.31, 128.093)" stroke-width="2.5967" stroke-miterlimit="3.864" stroke="#231f20" id="svg_660" fill="#bdbcbc" d="m233.30136,128.093c0,8.60723 6.17931,14.02016 11.10869,17.15159c21.99611,13.96966 68.78103,16.69073 91.79715,16.69073c11.71947,0 103.1119,-1.17891 103.1119,-33.84232c0,-32.65924 -91.39408,-33.84232 -103.1119,-33.84232c-11.73345,0 -102.90625,1.16629 -102.90625,33.84232l0.00041,0z"/>
   <path transform="rotate(-173.388, 336.356, 127.7)" stroke-width="2.5967" stroke-miterlimit="3.864" stroke="#231f20" id="svg_661" fill="#bdbcbc" d="m233.34696,127.69961c0,8.60723 6.17931,14.02016 11.10869,17.15159c21.99611,13.96966 68.78103,16.69073 91.79715,16.69073c11.71947,0 103.1119,-1.17891 103.1119,-33.84232s-91.39408,-33.84232 -103.1119,-33.84232c-11.73345,0 -102.90625,1.16624 -102.90625,33.84232l0.00041,0z"/>
   <path transform="rotate(-173.388, 336.395, 127.358)" stroke-width="2.5967" stroke-miterlimit="3.864" stroke="#231f20" id="svg_662" fill="#bdbcbc" d="m233.3866,127.35987c0,8.60723 6.17931,14.0162 11.10869,17.15159c21.99611,13.96521 68.78103,16.69073 91.79715,16.69073c11.71947,0 103.1119,-1.18317 103.1119,-33.84232c0,-32.6637 -91.39408,-33.84677 -103.1119,-33.84677c-11.73345,0 -102.90625,1.17045 -102.90625,33.84677l0.00041,0z"/>
   <path transform="rotate(-173.388, 336.441, 126.96)" stroke-width="2.5967" stroke-miterlimit="3.864" stroke="#231f20" id="svg_663" fill="#bdbcbc" d="m233.43271,126.95763c0,8.61168 6.17931,14.02016 11.10869,17.15159c21.99611,13.96966 68.78103,16.69519 91.79715,16.69519c11.71947,0 103.1119,-1.18317 103.1119,-33.84677c0,-32.65924 -91.39408,-33.84232 -103.1119,-33.84232c-11.73345,0 -102.90625,1.17045 -102.90625,33.84232l0.00041,0z"/>
   <path transform="rotate(-173.388, 336.481, 126.618)" stroke-width="2.5967" stroke-miterlimit="3.864" stroke="#231f20" id="svg_664" fill="#bdbcbc" d="m233.47236,126.61782c0,8.60723 6.17931,14.02016 11.10869,17.15159c21.99611,13.96966 68.78103,16.69073 91.79715,16.69073c11.71947,0 103.1119,-1.17891 103.1119,-33.84232c0,-32.65924 -91.39408,-33.84232 -103.1119,-33.84232c-11.73345,0 -102.90625,1.16624 -102.90625,33.84232l0.00041,0z"/>
   <path transform="rotate(-173.388, 336.527, 126.224)" stroke-width="2.5967" stroke-miterlimit="3.864" stroke="#231f20" id="svg_665" fill="#bdbcbc" d="m233.51795,126.22446c0,8.60723 6.17931,14.02016 11.10869,17.15159c21.99611,13.96521 68.78103,16.69073 91.79715,16.69073c11.71947,0 103.1119,-1.17891 103.1119,-33.84232s-91.39408,-33.84232 -103.1119,-33.84232c-11.73345,0 -102.90625,1.16624 -102.90625,33.84232l0.00041,0z"/>
   <path transform="rotate(-173.388, 336.566, 125.882)" stroke-width="2.5967" stroke-miterlimit="3.864" stroke="#231f20" id="svg_666" fill="#bdbcbc" d="m233.5576,125.88466c0,8.60723 6.17931,14.0162 11.10869,17.15159c21.99611,13.96521 68.78103,16.69073 91.79715,16.69073c11.71947,0 103.1119,-1.18317 103.1119,-33.84232c0,-32.6632 -91.39408,-33.84677 -103.1119,-33.84677c-11.73345,0 -102.90625,1.1705 -102.90625,33.84677l0.00041,0z"/>
   <path transform="rotate(-173.388, 336.612, 125.485)" stroke-width="2.5967" stroke-miterlimit="3.864" stroke="#231f20" id="svg_667" fill="#bdbcbc" d="m233.60371,125.48245c0,8.61168 6.17931,14.02016 11.10869,17.15159c21.99611,13.96966 68.78103,16.69519 91.79715,16.69519c11.71947,0 103.1119,-1.18317 103.1119,-33.84677c0,-32.65924 -91.39408,-33.84232 -103.1119,-33.84232c-11.73345,0 -102.90625,1.16624 -102.90625,33.84232l0.00041,0z"/>
   <path transform="rotate(-173.388, 336.652, 125.143)" stroke-width="2.5967" stroke-miterlimit="3.864" stroke="#231f20" id="svg_668" fill="#bdbcbc" d="m233.64335,125.14271c0,8.60723 6.17931,14.02016 11.10869,17.15159c21.99611,13.96966 68.78103,16.69073 91.79715,16.69073c11.71947,0 103.1119,-1.17896 103.1119,-33.84232c0,-32.6637 -91.39408,-33.84232 -103.1119,-33.84232c-11.73345,0 -102.90625,1.16624 -102.90625,33.84232l0.00041,0z"/>
   <path transform="rotate(-173.388, 336.698, 124.749)" stroke-width="2.5967" stroke-miterlimit="3.864" stroke="#231f20" id="svg_669" fill="#bdbcbc" d="m233.68895,124.74929c0,8.60723 6.17931,14.02016 11.10869,17.15159c21.99611,13.96966 68.78103,16.69073 91.79715,16.69073c11.71947,0 103.1119,-1.18312 103.1119,-33.84232c0,-32.6637 -91.39408,-33.84232 -103.1119,-33.84232c-11.73345,0 -102.90625,1.16624 -102.90625,33.84232l0.00041,0z"/>
   <path transform="rotate(-173.388, 336.737, 124.407)" stroke-width="2.5967" stroke-miterlimit="3.864" stroke="#231f20" id="svg_670" fill="#bdbcbc" d="m233.72859,124.40954c0,8.60723 6.17931,14.0162 11.10869,17.14713c21.99611,13.96966 68.78103,16.69519 91.79715,16.69519c11.71947,0 103.1119,-1.18312 103.1119,-33.84232c0,-32.6637 -91.39408,-33.84677 -103.1119,-33.84677c-11.73345,0 -102.90625,1.17045 -102.90625,33.84677l0.00041,0z"/>
   <path transform="rotate(-173.388, 336.783, 124.012)" stroke-width="2.5967" stroke-miterlimit="3.864" stroke="#231f20" id="svg_671" fill="#bdbcbc" d="m233.77445,124.01176c0,8.61168 6.17931,14.02016 11.10869,17.15159c21.99611,13.96966 68.78103,16.69073 91.79715,16.69073c11.71947,0 103.1119,-1.17891 103.1119,-33.84232c0,-32.65924 -91.39408,-33.84232 -103.1119,-33.84232c-11.73345,0 -102.90625,1.16624 -102.90625,33.84232l0.00041,0z"/>
   <path transform="rotate(-173.388, 336.823, 123.668)" stroke-width="2.5967" stroke-miterlimit="3.864" stroke="#231f20" id="svg_672" fill="#bdbcbc" d="m233.81435,123.6675c0,8.60723 6.17931,14.02016 11.10869,17.15159c21.99611,13.96966 68.78103,16.69073 91.79715,16.69073c11.71947,0 103.1119,-1.17891 103.1119,-33.84232s-91.39408,-33.84232 -103.1119,-33.84232c-11.73345,0 -102.90625,1.16629 -102.90625,33.84232l0.00041,0z"/>
   <path transform="rotate(-173.388, 336.869, 123.274)" stroke-width="2.5967" stroke-miterlimit="3.864" stroke="#231f20" id="svg_673" fill="#bdbcbc" d="m233.85995,123.27417c0,8.60723 6.17931,14.02016 11.10869,17.15159c21.99611,13.96521 68.78103,16.69073 91.79715,16.69073c11.71947,0 103.1119,-1.18317 103.1119,-33.84232c0,-32.6632 -91.39408,-33.84232 -103.1119,-33.84232c-11.73345,0 -102.90625,1.16629 -102.90625,33.84232l0.00041,0z"/>
   <path transform="rotate(-173.388, 336.908, 122.932)" stroke-width="2.5967" stroke-miterlimit="3.864" stroke="#231f20" id="svg_674" fill="#bdbcbc" d="m233.89959,122.93443c0,8.60723 6.17931,14.0162 11.10869,17.14713c21.99611,13.96966 68.78103,16.69519 91.79715,16.69519c11.71947,0 103.1119,-1.18317 103.1119,-33.84232c0,-32.6632 -91.39408,-33.84677 -103.1119,-33.84677c-11.73345,0 -102.90625,1.17045 -102.90625,33.84677l0.00041,0z"/>
   <path transform="rotate(-173.388, 336.954, 122.537)" stroke-width="2.5967" stroke-miterlimit="3.864" stroke="#231f20" id="svg_675" fill="#bdbcbc" d="m233.94545,122.53655c0,8.60723 6.17931,14.02016 11.10869,17.15159c21.99611,13.96966 68.78103,16.69073 91.79715,16.69073c11.71947,0 103.1119,-1.17891 103.1119,-33.84232c0,-32.65924 -91.39408,-33.84232 -103.1119,-33.84232c-11.73345,0 -102.90625,1.16624 -102.90625,33.84232l0.00041,0z"/>
   <path transform="rotate(-173.388, 336.994, 122.192)" stroke-width="2.5967" stroke-miterlimit="3.864" stroke="#231f20" id="svg_676" fill="#bdbcbc" d="m233.98534,122.19239c0,8.60723 6.17931,14.02016 11.10869,17.15159c21.99611,13.96966 68.78103,16.69073 91.79715,16.69073c11.71947,0 103.1119,-1.17891 103.1119,-33.84232c0,-32.6637 -91.39408,-33.84232 -103.1119,-33.84232c-11.73345,0 -102.90625,1.16624 -102.90625,33.84232l0.00041,0z"/>
   <path transform="rotate(-173.388, 316.999, 295.65)" id="svg_677" fill="#bdbcbc" d="m220.68215,460.9985c0,14.25281 43.07503,25.8098 96.31729,25.8098c53.23815,0 96.39544,-11.55699 96.39544,-25.8098l-0.06663,-331.17128c0,-14.25281 -43.09148,-25.33657 -96.32963,-25.33657s-96.39544,11.55699 -96.39544,25.8098l0.08061,330.70102"/>
   <path transform="rotate(-173.388, 335.929, 131.41)" stroke-width="2.5967" stroke-miterlimit="3.864" stroke="#231f20" id="svg_678" fill="#a7a5a6" d="m244.02928,148.55916c21.99611,13.96966 68.78103,16.69519 91.79715,16.69519c11.71947,0 103.1119,-1.18317 103.1119,-33.84232c0,-32.6637 -91.39408,-33.84677 -103.1119,-33.84677c-11.73345,0 -102.90625,1.17045 -102.90625,33.84677c0,8.60723 6.17931,14.0162 11.10869,17.14713l0.00041,0z"/>
   <path transform="rotate(-173.388, 316.999, 295.65)" stroke-width="0.97399" stroke-miterlimit="3.864" stroke="#231f20" id="svg_679" fill="none" d="0"/>
   <path transform="rotate(-173.388, 335.929, 131.41)" id="svg_680" fill="#a7a5a6" d="m244.02928,148.55916c21.99611,13.96966 68.78103,16.69519 91.79715,16.69519c11.71947,0 103.1119,-1.18317 103.1119,-33.84232c0,-32.6637 -91.39408,-33.84677 -103.1119,-33.84677c-11.73345,0 -102.90625,1.17045 -102.90625,33.84677c0,8.60723 6.17931,14.0162 11.10869,17.14713"/>
   <path transform="rotate(-173.388, 335.968, 131.043)" id="svg_681" fill="#a7a5a6" d="m232.95937,131.04326c0,8.60723 6.17931,14.02016 11.10869,17.15159c21.99611,13.96966 68.78103,16.69073 91.79715,16.69073c11.71947,0 103.1119,-1.17891 103.1119,-33.84232c0,-32.65924 -91.39408,-33.84232 -103.1119,-33.84232c-11.73345,0 -102.90625,1.16624 -102.90625,33.84232"/>
   <path transform="rotate(-173.388, 336.014, 130.65)" id="svg_682" fill="#a7a5a6" d="m233.00497,130.6499c0,8.60723 6.17931,14.02016 11.10869,17.15159c21.99611,13.96966 68.78103,16.69073 91.79715,16.69073c11.71947,0 103.1119,-1.17891 103.1119,-33.84232s-91.39408,-33.84232 -103.1119,-33.84232c-11.73345,0 -102.90625,1.16624 -102.90625,33.84232"/>
   <path transform="rotate(-173.388, 336.053, 130.308)" id="svg_683" fill="#a7a5a6" d="m233.04461,130.31016c0,8.60723 6.17931,14.0162 11.10869,17.15159c21.99611,13.96521 68.78103,16.69073 91.79715,16.69073c11.71947,0 103.1119,-1.18317 103.1119,-33.84232c0,-32.6632 -91.39408,-33.84677 -103.1119,-33.84677c-11.73345,0 -102.90625,1.1705 -102.90625,33.84677"/>
   <path transform="rotate(-173.388, 336.099, 129.91)" id="svg_684" fill="#a7a5a6" d="m233.09072,129.90786c0,8.61168 6.17931,14.02016 11.10869,17.15159c21.99611,13.96966 68.78103,16.69519 91.79715,16.69519c11.71947,0 103.1119,-1.18317 103.1119,-33.84677c0,-32.65924 -91.39408,-33.84232 -103.1119,-33.84232c-11.73345,0 -102.90625,1.1705 -102.90625,33.84232"/>
   <path transform="rotate(-173.388, 336.139, 129.568)" id="svg_685" fill="#a7a5a6" d="m233.13037,129.56815c0,8.60723 6.17931,14.02016 11.10869,17.15159c21.99611,13.96966 68.78103,16.69073 91.79715,16.69073c11.71947,0 103.1119,-1.17896 103.1119,-33.84232c0,-32.65924 -91.39408,-33.84232 -103.1119,-33.84232c-11.73345,0 -102.90625,1.16624 -102.90625,33.84232"/>
   <path transform="rotate(-173.388, 336.185, 129.175)" id="svg_686" fill="#a7a5a6" d="m233.17596,129.17479c0,8.60723 6.17931,14.02016 11.10869,17.15159c21.99611,13.96521 68.78103,16.69073 91.79715,16.69073c11.71947,0 103.1119,-1.17891 103.1119,-33.84232c0,-32.6637 -91.39408,-33.84232 -103.1119,-33.84232c-11.73345,0 -102.90625,1.16624 -102.90625,33.84232"/>
   <path transform="rotate(-173.388, 336.224, 128.833)" id="svg_687" fill="#a7a5a6" d="m233.21561,128.83498c0,8.60723 6.17931,14.0162 11.10869,17.15159c21.99611,13.96521 68.78103,16.69073 91.79715,16.69073c11.71947,0 103.1119,-1.18312 103.1119,-33.84232c0,-32.6637 -91.39408,-33.84677 -103.1119,-33.84677c-11.73345,0 -102.90625,1.17045 -102.90625,33.84677"/>
   <path transform="rotate(-173.388, 336.27, 128.435)" id="svg_688" fill="#a7a5a6" d="m233.26172,128.43274c0,8.61168 6.17931,14.02016 11.10869,17.15159c21.99611,13.96966 68.78103,16.69519 91.79715,16.69519c11.71947,0 103.1119,-1.18312 103.1119,-33.84677c0,-32.65924 -91.39408,-33.84232 -103.1119,-33.84232c-11.73345,0 -102.90625,1.1705 -102.90625,33.84232"/>
   <path transform="rotate(-173.388, 336.31, 128.093)" id="svg_689" fill="#a7a5a6" d="m233.30136,128.093c0,8.60723 6.17931,14.02016 11.10869,17.15159c21.99611,13.96966 68.78103,16.69073 91.79715,16.69073c11.71947,0 103.1119,-1.17891 103.1119,-33.84232c0,-32.65924 -91.39408,-33.84232 -103.1119,-33.84232c-11.73345,0 -102.90625,1.16629 -102.90625,33.84232"/>
   <path transform="rotate(-173.388, 336.356, 127.7)" id="svg_690" fill="#a7a5a6" d="m233.34696,127.69961c0,8.60723 6.17931,14.02016 11.10869,17.15159c21.99611,13.96966 68.78103,16.69073 91.79715,16.69073c11.71947,0 103.1119,-1.17891 103.1119,-33.84232s-91.39408,-33.84232 -103.1119,-33.84232c-11.73345,0 -102.90625,1.16624 -102.90625,33.84232"/>
   <path transform="rotate(-173.388, 336.395, 127.358)" id="svg_691" fill="#a7a5a6" d="m233.3866,127.35987c0,8.60723 6.17931,14.0162 11.10869,17.15159c21.99611,13.96521 68.78103,16.69073 91.79715,16.69073c11.71947,0 103.1119,-1.18317 103.1119,-33.84232c0,-32.6637 -91.39408,-33.84677 -103.1119,-33.84677c-11.73345,0 -102.90625,1.17045 -102.90625,33.84677"/>
   <path transform="rotate(-173.388, 336.441, 126.96)" id="svg_692" fill="#a7a5a6" d="m233.43271,126.95763c0,8.61168 6.17931,14.02016 11.10869,17.15159c21.99611,13.96966 68.78103,16.69519 91.79715,16.69519c11.71947,0 103.1119,-1.18317 103.1119,-33.84677c0,-32.65924 -91.39408,-33.84232 -103.1119,-33.84232c-11.73345,0 -102.90625,1.17045 -102.90625,33.84232"/>
   <path transform="rotate(-173.388, 336.481, 126.618)" id="svg_693" fill="#a7a5a6" d="m233.47236,126.61782c0,8.60723 6.17931,14.02016 11.10869,17.15159c21.99611,13.96966 68.78103,16.69073 91.79715,16.69073c11.71947,0 103.1119,-1.17891 103.1119,-33.84232c0,-32.65924 -91.39408,-33.84232 -103.1119,-33.84232c-11.73345,0 -102.90625,1.16624 -102.90625,33.84232"/>
   <path transform="rotate(-173.388, 336.527, 126.224)" id="svg_694" fill="#a7a5a6" d="m233.51795,126.22446c0,8.60723 6.17931,14.02016 11.10869,17.15159c21.99611,13.96521 68.78103,16.69073 91.79715,16.69073c11.71947,0 103.1119,-1.17891 103.1119,-33.84232s-91.39408,-33.84232 -103.1119,-33.84232c-11.73345,0 -102.90625,1.16624 -102.90625,33.84232"/>
   <path transform="rotate(-173.388, 336.566, 125.882)" id="svg_695" fill="#a7a5a6" d="m233.5576,125.88466c0,8.60723 6.17931,14.0162 11.10869,17.15159c21.99611,13.96521 68.78103,16.69073 91.79715,16.69073c11.71947,0 103.1119,-1.18317 103.1119,-33.84232c0,-32.6632 -91.39408,-33.84677 -103.1119,-33.84677c-11.73345,0 -102.90625,1.1705 -102.90625,33.84677"/>
   <path transform="rotate(-173.388, 336.612, 125.485)" id="svg_696" fill="#a7a5a6" d="m233.60371,125.48245c0,8.61168 6.17931,14.02016 11.10869,17.15159c21.99611,13.96966 68.78103,16.69519 91.79715,16.69519c11.71947,0 103.1119,-1.18317 103.1119,-33.84677c0,-32.65924 -91.39408,-33.84232 -103.1119,-33.84232c-11.73345,0 -102.90625,1.16624 -102.90625,33.84232"/>
   <path transform="rotate(-173.388, 336.652, 125.143)" id="svg_697" fill="#a7a5a6" d="m233.64335,125.14271c0,8.60723 6.17931,14.02016 11.10869,17.15159c21.99611,13.96966 68.78103,16.69073 91.79715,16.69073c11.71947,0 103.1119,-1.17896 103.1119,-33.84232c0,-32.6637 -91.39408,-33.84232 -103.1119,-33.84232c-11.73345,0 -102.90625,1.16624 -102.90625,33.84232"/>
   <path transform="rotate(-173.388, 336.698, 124.749)" id="svg_698" fill="#a7a5a6" d="m233.68895,124.74929c0,8.60723 6.17931,14.02016 11.10869,17.15159c21.99611,13.96966 68.78103,16.69073 91.79715,16.69073c11.71947,0 103.1119,-1.18312 103.1119,-33.84232c0,-32.6637 -91.39408,-33.84232 -103.1119,-33.84232c-11.73345,0 -102.90625,1.16624 -102.90625,33.84232"/>
   <path transform="rotate(-173.388, 336.737, 124.407)" id="svg_699" fill="#a7a5a6" d="m233.72859,124.40954c0,8.60723 6.17931,14.0162 11.10869,17.14713c21.99611,13.96966 68.78103,16.69519 91.79715,16.69519c11.71947,0 103.1119,-1.18312 103.1119,-33.84232c0,-32.6637 -91.39408,-33.84677 -103.1119,-33.84677c-11.73345,0 -102.90625,1.17045 -102.90625,33.84677"/>
   <path transform="rotate(-173.388, 336.783, 124.012)" id="svg_700" fill="#a7a5a6" d="m233.77445,124.01176c0,8.61168 6.17931,14.02016 11.10869,17.15159c21.99611,13.96966 68.78103,16.69073 91.79715,16.69073c11.71947,0 103.1119,-1.17891 103.1119,-33.84232c0,-32.65924 -91.39408,-33.84232 -103.1119,-33.84232c-11.73345,0 -102.90625,1.16624 -102.90625,33.84232"/>
   <path transform="rotate(-173.388, 336.823, 123.668)" id="svg_701" fill="#a7a5a6" d="m233.81435,123.6675c0,8.60723 6.17931,14.02016 11.10869,17.15159c21.99611,13.96966 68.78103,16.69073 91.79715,16.69073c11.71947,0 103.1119,-1.17891 103.1119,-33.84232s-91.39408,-33.84232 -103.1119,-33.84232c-11.73345,0 -102.90625,1.16629 -102.90625,33.84232"/>
   <path transform="rotate(-173.388, 336.869, 123.274)" id="svg_702" fill="#a7a5a6" d="m233.85995,123.27417c0,8.60723 6.17931,14.02016 11.10869,17.15159c21.99611,13.96521 68.78103,16.69073 91.79715,16.69073c11.71947,0 103.1119,-1.18317 103.1119,-33.84232c0,-32.6632 -91.39408,-33.84232 -103.1119,-33.84232c-11.73345,0 -102.90625,1.16629 -102.90625,33.84232"/>
   <path transform="rotate(-173.388, 336.908, 122.932)" id="svg_703" fill="#a7a5a6" d="m233.89959,122.93443c0,8.60723 6.17931,14.0162 11.10869,17.14713c21.99611,13.96966 68.78103,16.69519 91.79715,16.69519c11.71947,0 103.1119,-1.18317 103.1119,-33.84232c0,-32.6632 -91.39408,-33.84677 -103.1119,-33.84677c-11.73345,0 -102.90625,1.17045 -102.90625,33.84677"/>
   <path transform="rotate(-173.388, 336.954, 122.537)" id="svg_704" fill="#a7a5a6" d="m233.94545,122.53655c0,8.60723 6.17931,14.02016 11.10869,17.15159c21.99611,13.96966 68.78103,16.69073 91.79715,16.69073c11.71947,0 103.1119,-1.17891 103.1119,-33.84232c0,-32.65924 -91.39408,-33.84232 -103.1119,-33.84232c-11.73345,0 -102.90625,1.16624 -102.90625,33.84232"/>
   <path transform="rotate(-173.388, 336.994, 122.192)" id="svg_705" fill="#a7a5a6" d="m233.98534,122.19239c0,8.60723 6.17931,14.02016 11.10869,17.15159c21.99611,13.96966 68.78103,16.69073 91.79715,16.69073c11.71947,0 103.1119,-1.17891 103.1119,-33.84232c0,-32.6637 -91.39408,-33.84232 -103.1119,-33.84232c-11.73345,0 -102.90625,1.16624 -102.90625,33.84232"/>
   <path transform="rotate(-173.388, 337.04, 121.826)" id="svg_706" fill="#a7a5a6" d="m245.14025,138.97952c21.99611,13.96521 68.78103,16.69073 91.79715,16.69073c11.71947,0 103.1119,-1.18312 103.1119,-33.84232c0,-32.6632 -91.39408,-33.84677 -103.1119,-33.84677c-11.73345,0 -102.90625,1.1705 -102.90625,33.84677c0,8.60723 6.17931,14.0162 11.10869,17.15159"/>
   <path transform="rotate(-173.388, 337.038, 121.8)" id="svg_707" fill="#d3d2d2" d="m336.93428,142.79033c5.6948,0 30.7452,-0.27473 54.36922,-4.52978c11.86342,-2.13814 22.51229,-5.14265 29.92713,-9.12699c3.70405,-1.99024 5.95803,-3.89597 7.1656,-5.40847c0.56175,-0.70148 0.78998,-1.18738 0.87775,-1.42404c-0.08761,-0.23661 -0.31588,-1.71976 -0.87775,-2.42545c-1.20773,-1.51275 -3.46175,-3.41423 -7.1656,-5.40451c-7.41526,-3.98468 -18.06371,-6.99349 -29.92713,-9.12699c-23.62525,-4.2551 -48.67688,-4.53399 -54.36922,-4.53399c-5.69809,0 -30.69625,0.27473 -54.2705,4.52558c-11.83545,2.13389 -22.45265,5.14265 -29.84281,9.12303c-3.69352,1.99024 -5.94035,3.89172 -7.14462,5.40006c-0.55825,0.70143 -0.78648,1.18738 -0.87425,1.4282c0,0.49862 0.43889,3.19875 5.31888,6.29603c19.23631,12.2203 63.19974,15.20768 86.81224,15.20768"/>
   <path transform="rotate(-173.388, 391.82, 127.254)" stroke-width="0.64876" stroke-miterlimit="3.864" stroke="#231f20" id="svg_708" fill="#231f20" d="m364.99685,127.25608c0,4.03962 12.01108,7.31872 26.82349,7.31872c14.81612,0 26.82349,-3.27899 26.82349,-7.31872c0,-4.04383 -12.00737,-7.32268 -26.82349,-7.32268c-14.81282,0 -26.82349,3.27904 -26.82349,7.32268z"/>
   <path transform="rotate(-173.388, 353.011, 123.882)" id="svg_709" fill="#a7a5a6" d="m347.70777,132.52788l19.92112,0l5.4982,-17.28672l-19.92112,0l-5.4982,17.28672zm-15.54288,0l10.34656,0l5.4982,-17.28672l-10.34327,0l-5.5015,17.28672zm45.96644,-15.75714l-4.52549,14.22756c-1.07435,3.37621 -5.22428,6.11436 -9.26897,6.11436l-31.07177,0c-4.0446,0 -6.44953,-2.73815 -5.37523,-6.11436l4.52549,-14.22756c1.07435,-3.38042 5.22058,-6.11881 9.26526,-6.11881l31.07547,0c4.0446,0 6.44953,2.73819 5.37523,6.11881"/>
   <path transform="rotate(-173.388, 353.011, 123.882)" stroke-width="0.37047" stroke-miterlimit="3.864" stroke="#231f20" id="svg_710" fill="none" d="m347.70777,132.52788l19.92112,0l5.4982,-17.28672l-19.92112,0l-5.4982,17.28672zm-15.54288,0l10.34656,0l5.4982,-17.28672l-10.34327,0l-5.5015,17.28672zm45.96644,-15.75714l-4.52549,14.22756c-1.07435,3.37621 -5.22428,6.11436 -9.26897,6.11436l-31.07177,0c-4.0446,0 -6.44953,-2.73815 -5.37523,-6.11436l4.52549,-14.22756c1.07435,-3.38042 5.22058,-6.11881 9.26526,-6.11881l31.07547,0c4.0446,0 6.44953,2.73819 5.37523,6.11881z"/>
   <path transform="rotate(-173.388, 384.142, 120.534)" stroke-width="0.32353" stroke-miterlimit="3.864" stroke="#ffffff" id="svg_711" fill="#d3d2d2" d="m377.13267,120.5361c0,4.65655 3.13876,8.43397 7.01136,8.43397c3.86906,0 7.00766,-3.77762 7.00766,-8.43397c0,-4.66076 -3.13876,-8.43843 -7.00766,-8.43843c-3.87256,0 -7.01136,3.77767 -7.01136,8.43843z"/>
   <path transform="rotate(-173.388, 422.161, 75.9056)" stroke-width="0.32353" stroke-miterlimit="3.864" stroke="#bdbcbc" id="svg_712" fill="#d3d2d2" d="m417.34178,75.90754c0,3.19875 2.15922,5.79755 4.82039,5.79755c2.66129,0 4.8171,-2.5987 4.8171,-5.79755c0,-3.20296 -2.15573,-5.80151 -4.8171,-5.80151c-2.66129,0 -4.82039,2.5987 -4.82039,5.80151z"/>
   <path transform="rotate(-173.388, 408.51, 106.511)" stroke-width="0.32353" stroke-miterlimit="3.864" stroke="#ffffff" id="svg_713" fill="#d3d2d2" d="m403.69126,106.50897c0,3.20296 2.15926,5.80151 4.82039,5.80151c2.66129,0 4.8171,-2.5987 4.8171,-5.80151c0,-3.20296 -2.15568,-5.79755 -4.8171,-5.79755c-2.66129,0 -4.82039,2.59449 -4.82039,5.79755z"/>
   <path transform="rotate(-173.388, 404.09, 91.6987)" stroke-width="0.32353" stroke-miterlimit="3.864" stroke="#bdbcbc" id="svg_714" fill="#d3d2d2" d="m397.08227,91.69871c0,4.66076 3.13876,8.43397 7.00766,8.43397c3.87256,0 7.00766,-3.77341 7.00766,-8.43397c0,-4.65655 -3.13527,-8.43397 -7.00766,-8.43397c-3.86906,0 -7.00766,3.77767 -7.00766,8.43397z"/>
   <path transform="rotate(-173.388, 409.431, 53.1994)" stroke-width="0.32353" stroke-miterlimit="3.864" stroke="#bdbcbc" id="svg_715" fill="#d3d2d2" d="m404.61256,53.19936c0,3.20296 2.15922,5.79755 4.82039,5.79755c2.66129,0 4.8171,-2.59449 4.8171,-5.79755c0,-3.20296 -2.15573,-5.79755 -4.8171,-5.79755c-2.66129,0 -4.82039,2.59449 -4.82039,5.79755z"/>
   <path transform="rotate(-173.388, 399.013, 128.136)" stroke-width="0.32353" stroke-miterlimit="3.864" stroke="#ffffff" id="svg_716" fill="#d3d2d2" d="m395.43545,128.13563c0,2.37902 1.60101,4.30584 3.57766,4.30584c1.97315,0 3.57766,-1.92682 3.57766,-4.30584c0,-2.37897 -1.60451,-4.30579 -3.57766,-4.30579c-1.97665,0 -3.57766,1.92682 -3.57766,4.30579z"/>
   <path transform="rotate(-173.388, 317.511, 295.174)" stroke-width="0.97399" stroke-miterlimit="3.864" stroke="#231f20" id="svg_717" fill="#ffffff" d="m221.40168,186.30077c118.58897,-0.60426 192.21918,77.72145 192.21918,77.72145l0,140.0283s-73.63021,-78.32536 -192.21918,-77.72145l0,-140.0283z"/>
  </g>
  <text transform="rotate(10.6124, 313.44, 303.745) matrix(3.07026, 0, 0, 3.37805, -1661.6, -533.321)" y="257.08967" xml:space="preserve" x="643.28098" text-anchor="middle" stroke-width="0" stroke="#000000" id="svg_719" font-weight="bold" font-size="24" font-family="'Open Sans'" fill="#00007f">UVIT</text>
 </g>
</svg>